%TF.GenerationSoftware,KiCad,Pcbnew,7.0.9-7.0.9~ubuntu22.04.1*%
%TF.CreationDate,2024-03-26T10:14:33-06:00*%
%TF.ProjectId,StmBoard,53746d42-6f61-4726-942e-6b696361645f,rev?*%
%TF.SameCoordinates,Original*%
%TF.FileFunction,Legend,Top*%
%TF.FilePolarity,Positive*%
%FSLAX46Y46*%
G04 Gerber Fmt 4.6, Leading zero omitted, Abs format (unit mm)*
G04 Created by KiCad (PCBNEW 7.0.9-7.0.9~ubuntu22.04.1) date 2024-03-26 10:14:33*
%MOMM*%
%LPD*%
G01*
G04 APERTURE LIST*
%ADD10C,0.150000*%
%ADD11C,0.300000*%
%ADD12C,0.120000*%
%TA.AperFunction,Profile*%
%ADD13C,0.100000*%
%TD*%
G04 APERTURE END LIST*
D10*
X122800000Y-85300000D02*
X148800000Y-85300000D01*
X148800000Y-111300000D01*
X122800000Y-111300000D01*
X122800000Y-85300000D01*
D11*
X169483082Y-122643685D02*
X169554510Y-122572257D01*
X169554510Y-122572257D02*
X169697368Y-122500828D01*
X169697368Y-122500828D02*
X170054510Y-122500828D01*
X170054510Y-122500828D02*
X170197368Y-122572257D01*
X170197368Y-122572257D02*
X170268796Y-122643685D01*
X170268796Y-122643685D02*
X170340225Y-122786542D01*
X170340225Y-122786542D02*
X170340225Y-122929400D01*
X170340225Y-122929400D02*
X170268796Y-123143685D01*
X170268796Y-123143685D02*
X169411653Y-124000828D01*
X169411653Y-124000828D02*
X170340225Y-124000828D01*
X171268796Y-122500828D02*
X171411653Y-122500828D01*
X171411653Y-122500828D02*
X171554510Y-122572257D01*
X171554510Y-122572257D02*
X171625939Y-122643685D01*
X171625939Y-122643685D02*
X171697367Y-122786542D01*
X171697367Y-122786542D02*
X171768796Y-123072257D01*
X171768796Y-123072257D02*
X171768796Y-123429400D01*
X171768796Y-123429400D02*
X171697367Y-123715114D01*
X171697367Y-123715114D02*
X171625939Y-123857971D01*
X171625939Y-123857971D02*
X171554510Y-123929400D01*
X171554510Y-123929400D02*
X171411653Y-124000828D01*
X171411653Y-124000828D02*
X171268796Y-124000828D01*
X171268796Y-124000828D02*
X171125939Y-123929400D01*
X171125939Y-123929400D02*
X171054510Y-123857971D01*
X171054510Y-123857971D02*
X170983081Y-123715114D01*
X170983081Y-123715114D02*
X170911653Y-123429400D01*
X170911653Y-123429400D02*
X170911653Y-123072257D01*
X170911653Y-123072257D02*
X170983081Y-122786542D01*
X170983081Y-122786542D02*
X171054510Y-122643685D01*
X171054510Y-122643685D02*
X171125939Y-122572257D01*
X171125939Y-122572257D02*
X171268796Y-122500828D01*
X172340224Y-122643685D02*
X172411652Y-122572257D01*
X172411652Y-122572257D02*
X172554510Y-122500828D01*
X172554510Y-122500828D02*
X172911652Y-122500828D01*
X172911652Y-122500828D02*
X173054510Y-122572257D01*
X173054510Y-122572257D02*
X173125938Y-122643685D01*
X173125938Y-122643685D02*
X173197367Y-122786542D01*
X173197367Y-122786542D02*
X173197367Y-122929400D01*
X173197367Y-122929400D02*
X173125938Y-123143685D01*
X173125938Y-123143685D02*
X172268795Y-124000828D01*
X172268795Y-124000828D02*
X173197367Y-124000828D01*
X174483081Y-123000828D02*
X174483081Y-124000828D01*
X174125938Y-122429400D02*
X173768795Y-123500828D01*
X173768795Y-123500828D02*
X174697366Y-123500828D01*
X101983082Y-118949400D02*
X102125939Y-119020828D01*
X102125939Y-119020828D02*
X102411653Y-119020828D01*
X102411653Y-119020828D02*
X102554510Y-118949400D01*
X102554510Y-118949400D02*
X102625939Y-118806542D01*
X102625939Y-118806542D02*
X102625939Y-118735114D01*
X102625939Y-118735114D02*
X102554510Y-118592257D01*
X102554510Y-118592257D02*
X102411653Y-118520828D01*
X102411653Y-118520828D02*
X102197368Y-118520828D01*
X102197368Y-118520828D02*
X102054510Y-118449400D01*
X102054510Y-118449400D02*
X101983082Y-118306542D01*
X101983082Y-118306542D02*
X101983082Y-118235114D01*
X101983082Y-118235114D02*
X102054510Y-118092257D01*
X102054510Y-118092257D02*
X102197368Y-118020828D01*
X102197368Y-118020828D02*
X102411653Y-118020828D01*
X102411653Y-118020828D02*
X102554510Y-118092257D01*
X103054511Y-118020828D02*
X103625939Y-118020828D01*
X103268796Y-117520828D02*
X103268796Y-118806542D01*
X103268796Y-118806542D02*
X103340225Y-118949400D01*
X103340225Y-118949400D02*
X103483082Y-119020828D01*
X103483082Y-119020828D02*
X103625939Y-119020828D01*
X104125939Y-119020828D02*
X104125939Y-118020828D01*
X104125939Y-118163685D02*
X104197368Y-118092257D01*
X104197368Y-118092257D02*
X104340225Y-118020828D01*
X104340225Y-118020828D02*
X104554511Y-118020828D01*
X104554511Y-118020828D02*
X104697368Y-118092257D01*
X104697368Y-118092257D02*
X104768797Y-118235114D01*
X104768797Y-118235114D02*
X104768797Y-119020828D01*
X104768797Y-118235114D02*
X104840225Y-118092257D01*
X104840225Y-118092257D02*
X104983082Y-118020828D01*
X104983082Y-118020828D02*
X105197368Y-118020828D01*
X105197368Y-118020828D02*
X105340225Y-118092257D01*
X105340225Y-118092257D02*
X105411654Y-118235114D01*
X105411654Y-118235114D02*
X105411654Y-119020828D01*
X105983082Y-117520828D02*
X106911654Y-117520828D01*
X106911654Y-117520828D02*
X106411654Y-118092257D01*
X106411654Y-118092257D02*
X106625939Y-118092257D01*
X106625939Y-118092257D02*
X106768797Y-118163685D01*
X106768797Y-118163685D02*
X106840225Y-118235114D01*
X106840225Y-118235114D02*
X106911654Y-118377971D01*
X106911654Y-118377971D02*
X106911654Y-118735114D01*
X106911654Y-118735114D02*
X106840225Y-118877971D01*
X106840225Y-118877971D02*
X106768797Y-118949400D01*
X106768797Y-118949400D02*
X106625939Y-119020828D01*
X106625939Y-119020828D02*
X106197368Y-119020828D01*
X106197368Y-119020828D02*
X106054511Y-118949400D01*
X106054511Y-118949400D02*
X105983082Y-118877971D01*
X107483082Y-117663685D02*
X107554510Y-117592257D01*
X107554510Y-117592257D02*
X107697368Y-117520828D01*
X107697368Y-117520828D02*
X108054510Y-117520828D01*
X108054510Y-117520828D02*
X108197368Y-117592257D01*
X108197368Y-117592257D02*
X108268796Y-117663685D01*
X108268796Y-117663685D02*
X108340225Y-117806542D01*
X108340225Y-117806542D02*
X108340225Y-117949400D01*
X108340225Y-117949400D02*
X108268796Y-118163685D01*
X108268796Y-118163685D02*
X107411653Y-119020828D01*
X107411653Y-119020828D02*
X108340225Y-119020828D01*
X109768796Y-117592257D02*
X109625939Y-117520828D01*
X109625939Y-117520828D02*
X109411653Y-117520828D01*
X109411653Y-117520828D02*
X109197367Y-117592257D01*
X109197367Y-117592257D02*
X109054510Y-117735114D01*
X109054510Y-117735114D02*
X108983081Y-117877971D01*
X108983081Y-117877971D02*
X108911653Y-118163685D01*
X108911653Y-118163685D02*
X108911653Y-118377971D01*
X108911653Y-118377971D02*
X108983081Y-118663685D01*
X108983081Y-118663685D02*
X109054510Y-118806542D01*
X109054510Y-118806542D02*
X109197367Y-118949400D01*
X109197367Y-118949400D02*
X109411653Y-119020828D01*
X109411653Y-119020828D02*
X109554510Y-119020828D01*
X109554510Y-119020828D02*
X109768796Y-118949400D01*
X109768796Y-118949400D02*
X109840224Y-118877971D01*
X109840224Y-118877971D02*
X109840224Y-118377971D01*
X109840224Y-118377971D02*
X109554510Y-118377971D01*
X110768796Y-117520828D02*
X110911653Y-117520828D01*
X110911653Y-117520828D02*
X111054510Y-117592257D01*
X111054510Y-117592257D02*
X111125939Y-117663685D01*
X111125939Y-117663685D02*
X111197367Y-117806542D01*
X111197367Y-117806542D02*
X111268796Y-118092257D01*
X111268796Y-118092257D02*
X111268796Y-118449400D01*
X111268796Y-118449400D02*
X111197367Y-118735114D01*
X111197367Y-118735114D02*
X111125939Y-118877971D01*
X111125939Y-118877971D02*
X111054510Y-118949400D01*
X111054510Y-118949400D02*
X110911653Y-119020828D01*
X110911653Y-119020828D02*
X110768796Y-119020828D01*
X110768796Y-119020828D02*
X110625939Y-118949400D01*
X110625939Y-118949400D02*
X110554510Y-118877971D01*
X110554510Y-118877971D02*
X110483081Y-118735114D01*
X110483081Y-118735114D02*
X110411653Y-118449400D01*
X110411653Y-118449400D02*
X110411653Y-118092257D01*
X110411653Y-118092257D02*
X110483081Y-117806542D01*
X110483081Y-117806542D02*
X110554510Y-117663685D01*
X110554510Y-117663685D02*
X110625939Y-117592257D01*
X110625939Y-117592257D02*
X110768796Y-117520828D01*
X113054509Y-119020828D02*
X113054509Y-117520828D01*
X113054509Y-117520828D02*
X113554509Y-118592257D01*
X113554509Y-118592257D02*
X114054509Y-117520828D01*
X114054509Y-117520828D02*
X114054509Y-119020828D01*
X114768795Y-119020828D02*
X114768795Y-118020828D01*
X114768795Y-117520828D02*
X114697367Y-117592257D01*
X114697367Y-117592257D02*
X114768795Y-117663685D01*
X114768795Y-117663685D02*
X114840224Y-117592257D01*
X114840224Y-117592257D02*
X114768795Y-117520828D01*
X114768795Y-117520828D02*
X114768795Y-117663685D01*
X116125939Y-118949400D02*
X115983081Y-119020828D01*
X115983081Y-119020828D02*
X115697367Y-119020828D01*
X115697367Y-119020828D02*
X115554510Y-118949400D01*
X115554510Y-118949400D02*
X115483081Y-118877971D01*
X115483081Y-118877971D02*
X115411653Y-118735114D01*
X115411653Y-118735114D02*
X115411653Y-118306542D01*
X115411653Y-118306542D02*
X115483081Y-118163685D01*
X115483081Y-118163685D02*
X115554510Y-118092257D01*
X115554510Y-118092257D02*
X115697367Y-118020828D01*
X115697367Y-118020828D02*
X115983081Y-118020828D01*
X115983081Y-118020828D02*
X116125939Y-118092257D01*
X116768795Y-119020828D02*
X116768795Y-118020828D01*
X116768795Y-118306542D02*
X116840224Y-118163685D01*
X116840224Y-118163685D02*
X116911653Y-118092257D01*
X116911653Y-118092257D02*
X117054510Y-118020828D01*
X117054510Y-118020828D02*
X117197367Y-118020828D01*
X117911652Y-119020828D02*
X117768795Y-118949400D01*
X117768795Y-118949400D02*
X117697366Y-118877971D01*
X117697366Y-118877971D02*
X117625938Y-118735114D01*
X117625938Y-118735114D02*
X117625938Y-118306542D01*
X117625938Y-118306542D02*
X117697366Y-118163685D01*
X117697366Y-118163685D02*
X117768795Y-118092257D01*
X117768795Y-118092257D02*
X117911652Y-118020828D01*
X117911652Y-118020828D02*
X118125938Y-118020828D01*
X118125938Y-118020828D02*
X118268795Y-118092257D01*
X118268795Y-118092257D02*
X118340224Y-118163685D01*
X118340224Y-118163685D02*
X118411652Y-118306542D01*
X118411652Y-118306542D02*
X118411652Y-118735114D01*
X118411652Y-118735114D02*
X118340224Y-118877971D01*
X118340224Y-118877971D02*
X118268795Y-118949400D01*
X118268795Y-118949400D02*
X118125938Y-119020828D01*
X118125938Y-119020828D02*
X117911652Y-119020828D01*
X102554510Y-120650114D02*
X102768796Y-120721542D01*
X102768796Y-120721542D02*
X102840225Y-120792971D01*
X102840225Y-120792971D02*
X102911653Y-120935828D01*
X102911653Y-120935828D02*
X102911653Y-121150114D01*
X102911653Y-121150114D02*
X102840225Y-121292971D01*
X102840225Y-121292971D02*
X102768796Y-121364400D01*
X102768796Y-121364400D02*
X102625939Y-121435828D01*
X102625939Y-121435828D02*
X102054510Y-121435828D01*
X102054510Y-121435828D02*
X102054510Y-119935828D01*
X102054510Y-119935828D02*
X102554510Y-119935828D01*
X102554510Y-119935828D02*
X102697368Y-120007257D01*
X102697368Y-120007257D02*
X102768796Y-120078685D01*
X102768796Y-120078685D02*
X102840225Y-120221542D01*
X102840225Y-120221542D02*
X102840225Y-120364400D01*
X102840225Y-120364400D02*
X102768796Y-120507257D01*
X102768796Y-120507257D02*
X102697368Y-120578685D01*
X102697368Y-120578685D02*
X102554510Y-120650114D01*
X102554510Y-120650114D02*
X102054510Y-120650114D01*
X103554510Y-121292971D02*
X103625939Y-121364400D01*
X103625939Y-121364400D02*
X103554510Y-121435828D01*
X103554510Y-121435828D02*
X103483082Y-121364400D01*
X103483082Y-121364400D02*
X103554510Y-121292971D01*
X103554510Y-121292971D02*
X103554510Y-121435828D01*
X105125939Y-121292971D02*
X105054511Y-121364400D01*
X105054511Y-121364400D02*
X104840225Y-121435828D01*
X104840225Y-121435828D02*
X104697368Y-121435828D01*
X104697368Y-121435828D02*
X104483082Y-121364400D01*
X104483082Y-121364400D02*
X104340225Y-121221542D01*
X104340225Y-121221542D02*
X104268796Y-121078685D01*
X104268796Y-121078685D02*
X104197368Y-120792971D01*
X104197368Y-120792971D02*
X104197368Y-120578685D01*
X104197368Y-120578685D02*
X104268796Y-120292971D01*
X104268796Y-120292971D02*
X104340225Y-120150114D01*
X104340225Y-120150114D02*
X104483082Y-120007257D01*
X104483082Y-120007257D02*
X104697368Y-119935828D01*
X104697368Y-119935828D02*
X104840225Y-119935828D01*
X104840225Y-119935828D02*
X105054511Y-120007257D01*
X105054511Y-120007257D02*
X105125939Y-120078685D01*
X106411654Y-121435828D02*
X106411654Y-120650114D01*
X106411654Y-120650114D02*
X106340225Y-120507257D01*
X106340225Y-120507257D02*
X106197368Y-120435828D01*
X106197368Y-120435828D02*
X105911654Y-120435828D01*
X105911654Y-120435828D02*
X105768796Y-120507257D01*
X106411654Y-121364400D02*
X106268796Y-121435828D01*
X106268796Y-121435828D02*
X105911654Y-121435828D01*
X105911654Y-121435828D02*
X105768796Y-121364400D01*
X105768796Y-121364400D02*
X105697368Y-121221542D01*
X105697368Y-121221542D02*
X105697368Y-121078685D01*
X105697368Y-121078685D02*
X105768796Y-120935828D01*
X105768796Y-120935828D02*
X105911654Y-120864400D01*
X105911654Y-120864400D02*
X106268796Y-120864400D01*
X106268796Y-120864400D02*
X106411654Y-120792971D01*
X107125939Y-121435828D02*
X107125939Y-120435828D01*
X107125939Y-120721542D02*
X107197368Y-120578685D01*
X107197368Y-120578685D02*
X107268797Y-120507257D01*
X107268797Y-120507257D02*
X107411654Y-120435828D01*
X107411654Y-120435828D02*
X107554511Y-120435828D01*
X108054510Y-120435828D02*
X108054510Y-121935828D01*
X108054510Y-120507257D02*
X108197368Y-120435828D01*
X108197368Y-120435828D02*
X108483082Y-120435828D01*
X108483082Y-120435828D02*
X108625939Y-120507257D01*
X108625939Y-120507257D02*
X108697368Y-120578685D01*
X108697368Y-120578685D02*
X108768796Y-120721542D01*
X108768796Y-120721542D02*
X108768796Y-121150114D01*
X108768796Y-121150114D02*
X108697368Y-121292971D01*
X108697368Y-121292971D02*
X108625939Y-121364400D01*
X108625939Y-121364400D02*
X108483082Y-121435828D01*
X108483082Y-121435828D02*
X108197368Y-121435828D01*
X108197368Y-121435828D02*
X108054510Y-121364400D01*
X109983082Y-121364400D02*
X109840225Y-121435828D01*
X109840225Y-121435828D02*
X109554511Y-121435828D01*
X109554511Y-121435828D02*
X109411653Y-121364400D01*
X109411653Y-121364400D02*
X109340225Y-121221542D01*
X109340225Y-121221542D02*
X109340225Y-120650114D01*
X109340225Y-120650114D02*
X109411653Y-120507257D01*
X109411653Y-120507257D02*
X109554511Y-120435828D01*
X109554511Y-120435828D02*
X109840225Y-120435828D01*
X109840225Y-120435828D02*
X109983082Y-120507257D01*
X109983082Y-120507257D02*
X110054511Y-120650114D01*
X110054511Y-120650114D02*
X110054511Y-120792971D01*
X110054511Y-120792971D02*
X109340225Y-120935828D01*
X110697367Y-120435828D02*
X110697367Y-121435828D01*
X110697367Y-120578685D02*
X110768796Y-120507257D01*
X110768796Y-120507257D02*
X110911653Y-120435828D01*
X110911653Y-120435828D02*
X111125939Y-120435828D01*
X111125939Y-120435828D02*
X111268796Y-120507257D01*
X111268796Y-120507257D02*
X111340225Y-120650114D01*
X111340225Y-120650114D02*
X111340225Y-121435828D01*
X111840225Y-120435828D02*
X112411653Y-120435828D01*
X112054510Y-119935828D02*
X112054510Y-121221542D01*
X112054510Y-121221542D02*
X112125939Y-121364400D01*
X112125939Y-121364400D02*
X112268796Y-121435828D01*
X112268796Y-121435828D02*
X112411653Y-121435828D01*
X113483082Y-121364400D02*
X113340225Y-121435828D01*
X113340225Y-121435828D02*
X113054511Y-121435828D01*
X113054511Y-121435828D02*
X112911653Y-121364400D01*
X112911653Y-121364400D02*
X112840225Y-121221542D01*
X112840225Y-121221542D02*
X112840225Y-120650114D01*
X112840225Y-120650114D02*
X112911653Y-120507257D01*
X112911653Y-120507257D02*
X113054511Y-120435828D01*
X113054511Y-120435828D02*
X113340225Y-120435828D01*
X113340225Y-120435828D02*
X113483082Y-120507257D01*
X113483082Y-120507257D02*
X113554511Y-120650114D01*
X113554511Y-120650114D02*
X113554511Y-120792971D01*
X113554511Y-120792971D02*
X112840225Y-120935828D01*
X114197367Y-121435828D02*
X114197367Y-120435828D01*
X114197367Y-120721542D02*
X114268796Y-120578685D01*
X114268796Y-120578685D02*
X114340225Y-120507257D01*
X114340225Y-120507257D02*
X114483082Y-120435828D01*
X114483082Y-120435828D02*
X114625939Y-120435828D01*
X102054510Y-123850828D02*
X102054510Y-122350828D01*
X102054510Y-122350828D02*
X102911653Y-123850828D01*
X102911653Y-123850828D02*
X102911653Y-122350828D01*
X104268797Y-123850828D02*
X104268797Y-123065114D01*
X104268797Y-123065114D02*
X104197368Y-122922257D01*
X104197368Y-122922257D02*
X104054511Y-122850828D01*
X104054511Y-122850828D02*
X103768797Y-122850828D01*
X103768797Y-122850828D02*
X103625939Y-122922257D01*
X104268797Y-123779400D02*
X104125939Y-123850828D01*
X104125939Y-123850828D02*
X103768797Y-123850828D01*
X103768797Y-123850828D02*
X103625939Y-123779400D01*
X103625939Y-123779400D02*
X103554511Y-123636542D01*
X103554511Y-123636542D02*
X103554511Y-123493685D01*
X103554511Y-123493685D02*
X103625939Y-123350828D01*
X103625939Y-123350828D02*
X103768797Y-123279400D01*
X103768797Y-123279400D02*
X104125939Y-123279400D01*
X104125939Y-123279400D02*
X104268797Y-123207971D01*
X104983082Y-123850828D02*
X104983082Y-122850828D01*
X104983082Y-122350828D02*
X104911654Y-122422257D01*
X104911654Y-122422257D02*
X104983082Y-122493685D01*
X104983082Y-122493685D02*
X105054511Y-122422257D01*
X105054511Y-122422257D02*
X104983082Y-122350828D01*
X104983082Y-122350828D02*
X104983082Y-122493685D01*
X105483083Y-122850828D02*
X106054511Y-122850828D01*
X105697368Y-122350828D02*
X105697368Y-123636542D01*
X105697368Y-123636542D02*
X105768797Y-123779400D01*
X105768797Y-123779400D02*
X105911654Y-123850828D01*
X105911654Y-123850828D02*
X106054511Y-123850828D01*
D10*
X92813095Y-84659819D02*
X92813095Y-85469342D01*
X92813095Y-85469342D02*
X92860714Y-85564580D01*
X92860714Y-85564580D02*
X92908333Y-85612200D01*
X92908333Y-85612200D02*
X93003571Y-85659819D01*
X93003571Y-85659819D02*
X93194047Y-85659819D01*
X93194047Y-85659819D02*
X93289285Y-85612200D01*
X93289285Y-85612200D02*
X93336904Y-85564580D01*
X93336904Y-85564580D02*
X93384523Y-85469342D01*
X93384523Y-85469342D02*
X93384523Y-84659819D01*
X93908333Y-85659819D02*
X94098809Y-85659819D01*
X94098809Y-85659819D02*
X94194047Y-85612200D01*
X94194047Y-85612200D02*
X94241666Y-85564580D01*
X94241666Y-85564580D02*
X94336904Y-85421723D01*
X94336904Y-85421723D02*
X94384523Y-85231247D01*
X94384523Y-85231247D02*
X94384523Y-84850295D01*
X94384523Y-84850295D02*
X94336904Y-84755057D01*
X94336904Y-84755057D02*
X94289285Y-84707438D01*
X94289285Y-84707438D02*
X94194047Y-84659819D01*
X94194047Y-84659819D02*
X94003571Y-84659819D01*
X94003571Y-84659819D02*
X93908333Y-84707438D01*
X93908333Y-84707438D02*
X93860714Y-84755057D01*
X93860714Y-84755057D02*
X93813095Y-84850295D01*
X93813095Y-84850295D02*
X93813095Y-85088390D01*
X93813095Y-85088390D02*
X93860714Y-85183628D01*
X93860714Y-85183628D02*
X93908333Y-85231247D01*
X93908333Y-85231247D02*
X94003571Y-85278866D01*
X94003571Y-85278866D02*
X94194047Y-85278866D01*
X94194047Y-85278866D02*
X94289285Y-85231247D01*
X94289285Y-85231247D02*
X94336904Y-85183628D01*
X94336904Y-85183628D02*
X94384523Y-85088390D01*
X111191667Y-94557200D02*
X111334524Y-94604819D01*
X111334524Y-94604819D02*
X111572619Y-94604819D01*
X111572619Y-94604819D02*
X111667857Y-94557200D01*
X111667857Y-94557200D02*
X111715476Y-94509580D01*
X111715476Y-94509580D02*
X111763095Y-94414342D01*
X111763095Y-94414342D02*
X111763095Y-94319104D01*
X111763095Y-94319104D02*
X111715476Y-94223866D01*
X111715476Y-94223866D02*
X111667857Y-94176247D01*
X111667857Y-94176247D02*
X111572619Y-94128628D01*
X111572619Y-94128628D02*
X111382143Y-94081009D01*
X111382143Y-94081009D02*
X111286905Y-94033390D01*
X111286905Y-94033390D02*
X111239286Y-93985771D01*
X111239286Y-93985771D02*
X111191667Y-93890533D01*
X111191667Y-93890533D02*
X111191667Y-93795295D01*
X111191667Y-93795295D02*
X111239286Y-93700057D01*
X111239286Y-93700057D02*
X111286905Y-93652438D01*
X111286905Y-93652438D02*
X111382143Y-93604819D01*
X111382143Y-93604819D02*
X111620238Y-93604819D01*
X111620238Y-93604819D02*
X111763095Y-93652438D01*
X112096429Y-93604819D02*
X112334524Y-94604819D01*
X112334524Y-94604819D02*
X112525000Y-93890533D01*
X112525000Y-93890533D02*
X112715476Y-94604819D01*
X112715476Y-94604819D02*
X112953572Y-93604819D01*
X113239286Y-93604819D02*
X113905952Y-93604819D01*
X113905952Y-93604819D02*
X113477381Y-94604819D01*
X103257142Y-114759580D02*
X103209523Y-114807200D01*
X103209523Y-114807200D02*
X103066666Y-114854819D01*
X103066666Y-114854819D02*
X102971428Y-114854819D01*
X102971428Y-114854819D02*
X102828571Y-114807200D01*
X102828571Y-114807200D02*
X102733333Y-114711961D01*
X102733333Y-114711961D02*
X102685714Y-114616723D01*
X102685714Y-114616723D02*
X102638095Y-114426247D01*
X102638095Y-114426247D02*
X102638095Y-114283390D01*
X102638095Y-114283390D02*
X102685714Y-114092914D01*
X102685714Y-114092914D02*
X102733333Y-113997676D01*
X102733333Y-113997676D02*
X102828571Y-113902438D01*
X102828571Y-113902438D02*
X102971428Y-113854819D01*
X102971428Y-113854819D02*
X103066666Y-113854819D01*
X103066666Y-113854819D02*
X103209523Y-113902438D01*
X103209523Y-113902438D02*
X103257142Y-113950057D01*
X104209523Y-114854819D02*
X103638095Y-114854819D01*
X103923809Y-114854819D02*
X103923809Y-113854819D01*
X103923809Y-113854819D02*
X103828571Y-113997676D01*
X103828571Y-113997676D02*
X103733333Y-114092914D01*
X103733333Y-114092914D02*
X103638095Y-114140533D01*
X104590476Y-113950057D02*
X104638095Y-113902438D01*
X104638095Y-113902438D02*
X104733333Y-113854819D01*
X104733333Y-113854819D02*
X104971428Y-113854819D01*
X104971428Y-113854819D02*
X105066666Y-113902438D01*
X105066666Y-113902438D02*
X105114285Y-113950057D01*
X105114285Y-113950057D02*
X105161904Y-114045295D01*
X105161904Y-114045295D02*
X105161904Y-114140533D01*
X105161904Y-114140533D02*
X105114285Y-114283390D01*
X105114285Y-114283390D02*
X104542857Y-114854819D01*
X104542857Y-114854819D02*
X105161904Y-114854819D01*
X101039580Y-88016666D02*
X101087200Y-88064285D01*
X101087200Y-88064285D02*
X101134819Y-88207142D01*
X101134819Y-88207142D02*
X101134819Y-88302380D01*
X101134819Y-88302380D02*
X101087200Y-88445237D01*
X101087200Y-88445237D02*
X100991961Y-88540475D01*
X100991961Y-88540475D02*
X100896723Y-88588094D01*
X100896723Y-88588094D02*
X100706247Y-88635713D01*
X100706247Y-88635713D02*
X100563390Y-88635713D01*
X100563390Y-88635713D02*
X100372914Y-88588094D01*
X100372914Y-88588094D02*
X100277676Y-88540475D01*
X100277676Y-88540475D02*
X100182438Y-88445237D01*
X100182438Y-88445237D02*
X100134819Y-88302380D01*
X100134819Y-88302380D02*
X100134819Y-88207142D01*
X100134819Y-88207142D02*
X100182438Y-88064285D01*
X100182438Y-88064285D02*
X100230057Y-88016666D01*
X100134819Y-87159523D02*
X100134819Y-87349999D01*
X100134819Y-87349999D02*
X100182438Y-87445237D01*
X100182438Y-87445237D02*
X100230057Y-87492856D01*
X100230057Y-87492856D02*
X100372914Y-87588094D01*
X100372914Y-87588094D02*
X100563390Y-87635713D01*
X100563390Y-87635713D02*
X100944342Y-87635713D01*
X100944342Y-87635713D02*
X101039580Y-87588094D01*
X101039580Y-87588094D02*
X101087200Y-87540475D01*
X101087200Y-87540475D02*
X101134819Y-87445237D01*
X101134819Y-87445237D02*
X101134819Y-87254761D01*
X101134819Y-87254761D02*
X101087200Y-87159523D01*
X101087200Y-87159523D02*
X101039580Y-87111904D01*
X101039580Y-87111904D02*
X100944342Y-87064285D01*
X100944342Y-87064285D02*
X100706247Y-87064285D01*
X100706247Y-87064285D02*
X100611009Y-87111904D01*
X100611009Y-87111904D02*
X100563390Y-87159523D01*
X100563390Y-87159523D02*
X100515771Y-87254761D01*
X100515771Y-87254761D02*
X100515771Y-87445237D01*
X100515771Y-87445237D02*
X100563390Y-87540475D01*
X100563390Y-87540475D02*
X100611009Y-87588094D01*
X100611009Y-87588094D02*
X100706247Y-87635713D01*
X150333333Y-103384819D02*
X150000000Y-102908628D01*
X149761905Y-103384819D02*
X149761905Y-102384819D01*
X149761905Y-102384819D02*
X150142857Y-102384819D01*
X150142857Y-102384819D02*
X150238095Y-102432438D01*
X150238095Y-102432438D02*
X150285714Y-102480057D01*
X150285714Y-102480057D02*
X150333333Y-102575295D01*
X150333333Y-102575295D02*
X150333333Y-102718152D01*
X150333333Y-102718152D02*
X150285714Y-102813390D01*
X150285714Y-102813390D02*
X150238095Y-102861009D01*
X150238095Y-102861009D02*
X150142857Y-102908628D01*
X150142857Y-102908628D02*
X149761905Y-102908628D01*
X151285714Y-103384819D02*
X150714286Y-103384819D01*
X151000000Y-103384819D02*
X151000000Y-102384819D01*
X151000000Y-102384819D02*
X150904762Y-102527676D01*
X150904762Y-102527676D02*
X150809524Y-102622914D01*
X150809524Y-102622914D02*
X150714286Y-102670533D01*
X151108333Y-122084819D02*
X150775000Y-121608628D01*
X150536905Y-122084819D02*
X150536905Y-121084819D01*
X150536905Y-121084819D02*
X150917857Y-121084819D01*
X150917857Y-121084819D02*
X151013095Y-121132438D01*
X151013095Y-121132438D02*
X151060714Y-121180057D01*
X151060714Y-121180057D02*
X151108333Y-121275295D01*
X151108333Y-121275295D02*
X151108333Y-121418152D01*
X151108333Y-121418152D02*
X151060714Y-121513390D01*
X151060714Y-121513390D02*
X151013095Y-121561009D01*
X151013095Y-121561009D02*
X150917857Y-121608628D01*
X150917857Y-121608628D02*
X150536905Y-121608628D01*
X151441667Y-121084819D02*
X152060714Y-121084819D01*
X152060714Y-121084819D02*
X151727381Y-121465771D01*
X151727381Y-121465771D02*
X151870238Y-121465771D01*
X151870238Y-121465771D02*
X151965476Y-121513390D01*
X151965476Y-121513390D02*
X152013095Y-121561009D01*
X152013095Y-121561009D02*
X152060714Y-121656247D01*
X152060714Y-121656247D02*
X152060714Y-121894342D01*
X152060714Y-121894342D02*
X152013095Y-121989580D01*
X152013095Y-121989580D02*
X151965476Y-122037200D01*
X151965476Y-122037200D02*
X151870238Y-122084819D01*
X151870238Y-122084819D02*
X151584524Y-122084819D01*
X151584524Y-122084819D02*
X151489286Y-122037200D01*
X151489286Y-122037200D02*
X151441667Y-121989580D01*
X136938095Y-95374819D02*
X136938095Y-96184342D01*
X136938095Y-96184342D02*
X136985714Y-96279580D01*
X136985714Y-96279580D02*
X137033333Y-96327200D01*
X137033333Y-96327200D02*
X137128571Y-96374819D01*
X137128571Y-96374819D02*
X137319047Y-96374819D01*
X137319047Y-96374819D02*
X137414285Y-96327200D01*
X137414285Y-96327200D02*
X137461904Y-96279580D01*
X137461904Y-96279580D02*
X137509523Y-96184342D01*
X137509523Y-96184342D02*
X137509523Y-95374819D01*
X138509523Y-96374819D02*
X137938095Y-96374819D01*
X138223809Y-96374819D02*
X138223809Y-95374819D01*
X138223809Y-95374819D02*
X138128571Y-95517676D01*
X138128571Y-95517676D02*
X138033333Y-95612914D01*
X138033333Y-95612914D02*
X137938095Y-95660533D01*
X114354819Y-81338094D02*
X115164342Y-81338094D01*
X115164342Y-81338094D02*
X115259580Y-81290475D01*
X115259580Y-81290475D02*
X115307200Y-81242856D01*
X115307200Y-81242856D02*
X115354819Y-81147618D01*
X115354819Y-81147618D02*
X115354819Y-80957142D01*
X115354819Y-80957142D02*
X115307200Y-80861904D01*
X115307200Y-80861904D02*
X115259580Y-80814285D01*
X115259580Y-80814285D02*
X115164342Y-80766666D01*
X115164342Y-80766666D02*
X114354819Y-80766666D01*
X115354819Y-79766666D02*
X115354819Y-80338094D01*
X115354819Y-80052380D02*
X114354819Y-80052380D01*
X114354819Y-80052380D02*
X114497676Y-80147618D01*
X114497676Y-80147618D02*
X114592914Y-80242856D01*
X114592914Y-80242856D02*
X114640533Y-80338094D01*
X115354819Y-78814285D02*
X115354819Y-79385713D01*
X115354819Y-79099999D02*
X114354819Y-79099999D01*
X114354819Y-79099999D02*
X114497676Y-79195237D01*
X114497676Y-79195237D02*
X114592914Y-79290475D01*
X114592914Y-79290475D02*
X114640533Y-79385713D01*
X87279580Y-80392857D02*
X87327200Y-80440476D01*
X87327200Y-80440476D02*
X87374819Y-80583333D01*
X87374819Y-80583333D02*
X87374819Y-80678571D01*
X87374819Y-80678571D02*
X87327200Y-80821428D01*
X87327200Y-80821428D02*
X87231961Y-80916666D01*
X87231961Y-80916666D02*
X87136723Y-80964285D01*
X87136723Y-80964285D02*
X86946247Y-81011904D01*
X86946247Y-81011904D02*
X86803390Y-81011904D01*
X86803390Y-81011904D02*
X86612914Y-80964285D01*
X86612914Y-80964285D02*
X86517676Y-80916666D01*
X86517676Y-80916666D02*
X86422438Y-80821428D01*
X86422438Y-80821428D02*
X86374819Y-80678571D01*
X86374819Y-80678571D02*
X86374819Y-80583333D01*
X86374819Y-80583333D02*
X86422438Y-80440476D01*
X86422438Y-80440476D02*
X86470057Y-80392857D01*
X87374819Y-79440476D02*
X87374819Y-80011904D01*
X87374819Y-79726190D02*
X86374819Y-79726190D01*
X86374819Y-79726190D02*
X86517676Y-79821428D01*
X86517676Y-79821428D02*
X86612914Y-79916666D01*
X86612914Y-79916666D02*
X86660533Y-80011904D01*
X87374819Y-78488095D02*
X87374819Y-79059523D01*
X87374819Y-78773809D02*
X86374819Y-78773809D01*
X86374819Y-78773809D02*
X86517676Y-78869047D01*
X86517676Y-78869047D02*
X86612914Y-78964285D01*
X86612914Y-78964285D02*
X86660533Y-79059523D01*
X115183333Y-111559580D02*
X115135714Y-111607200D01*
X115135714Y-111607200D02*
X114992857Y-111654819D01*
X114992857Y-111654819D02*
X114897619Y-111654819D01*
X114897619Y-111654819D02*
X114754762Y-111607200D01*
X114754762Y-111607200D02*
X114659524Y-111511961D01*
X114659524Y-111511961D02*
X114611905Y-111416723D01*
X114611905Y-111416723D02*
X114564286Y-111226247D01*
X114564286Y-111226247D02*
X114564286Y-111083390D01*
X114564286Y-111083390D02*
X114611905Y-110892914D01*
X114611905Y-110892914D02*
X114659524Y-110797676D01*
X114659524Y-110797676D02*
X114754762Y-110702438D01*
X114754762Y-110702438D02*
X114897619Y-110654819D01*
X114897619Y-110654819D02*
X114992857Y-110654819D01*
X114992857Y-110654819D02*
X115135714Y-110702438D01*
X115135714Y-110702438D02*
X115183333Y-110750057D01*
X116135714Y-111654819D02*
X115564286Y-111654819D01*
X115850000Y-111654819D02*
X115850000Y-110654819D01*
X115850000Y-110654819D02*
X115754762Y-110797676D01*
X115754762Y-110797676D02*
X115659524Y-110892914D01*
X115659524Y-110892914D02*
X115564286Y-110940533D01*
X128924819Y-88361904D02*
X129734342Y-88361904D01*
X129734342Y-88361904D02*
X129829580Y-88314285D01*
X129829580Y-88314285D02*
X129877200Y-88266666D01*
X129877200Y-88266666D02*
X129924819Y-88171428D01*
X129924819Y-88171428D02*
X129924819Y-87980952D01*
X129924819Y-87980952D02*
X129877200Y-87885714D01*
X129877200Y-87885714D02*
X129829580Y-87838095D01*
X129829580Y-87838095D02*
X129734342Y-87790476D01*
X129734342Y-87790476D02*
X128924819Y-87790476D01*
X128924819Y-87409523D02*
X128924819Y-86790476D01*
X128924819Y-86790476D02*
X129305771Y-87123809D01*
X129305771Y-87123809D02*
X129305771Y-86980952D01*
X129305771Y-86980952D02*
X129353390Y-86885714D01*
X129353390Y-86885714D02*
X129401009Y-86838095D01*
X129401009Y-86838095D02*
X129496247Y-86790476D01*
X129496247Y-86790476D02*
X129734342Y-86790476D01*
X129734342Y-86790476D02*
X129829580Y-86838095D01*
X129829580Y-86838095D02*
X129877200Y-86885714D01*
X129877200Y-86885714D02*
X129924819Y-86980952D01*
X129924819Y-86980952D02*
X129924819Y-87266666D01*
X129924819Y-87266666D02*
X129877200Y-87361904D01*
X129877200Y-87361904D02*
X129829580Y-87409523D01*
X111066667Y-86257200D02*
X111209524Y-86304819D01*
X111209524Y-86304819D02*
X111447619Y-86304819D01*
X111447619Y-86304819D02*
X111542857Y-86257200D01*
X111542857Y-86257200D02*
X111590476Y-86209580D01*
X111590476Y-86209580D02*
X111638095Y-86114342D01*
X111638095Y-86114342D02*
X111638095Y-86019104D01*
X111638095Y-86019104D02*
X111590476Y-85923866D01*
X111590476Y-85923866D02*
X111542857Y-85876247D01*
X111542857Y-85876247D02*
X111447619Y-85828628D01*
X111447619Y-85828628D02*
X111257143Y-85781009D01*
X111257143Y-85781009D02*
X111161905Y-85733390D01*
X111161905Y-85733390D02*
X111114286Y-85685771D01*
X111114286Y-85685771D02*
X111066667Y-85590533D01*
X111066667Y-85590533D02*
X111066667Y-85495295D01*
X111066667Y-85495295D02*
X111114286Y-85400057D01*
X111114286Y-85400057D02*
X111161905Y-85352438D01*
X111161905Y-85352438D02*
X111257143Y-85304819D01*
X111257143Y-85304819D02*
X111495238Y-85304819D01*
X111495238Y-85304819D02*
X111638095Y-85352438D01*
X111971429Y-85304819D02*
X112209524Y-86304819D01*
X112209524Y-86304819D02*
X112400000Y-85590533D01*
X112400000Y-85590533D02*
X112590476Y-86304819D01*
X112590476Y-86304819D02*
X112828572Y-85304819D01*
X113352381Y-85733390D02*
X113257143Y-85685771D01*
X113257143Y-85685771D02*
X113209524Y-85638152D01*
X113209524Y-85638152D02*
X113161905Y-85542914D01*
X113161905Y-85542914D02*
X113161905Y-85495295D01*
X113161905Y-85495295D02*
X113209524Y-85400057D01*
X113209524Y-85400057D02*
X113257143Y-85352438D01*
X113257143Y-85352438D02*
X113352381Y-85304819D01*
X113352381Y-85304819D02*
X113542857Y-85304819D01*
X113542857Y-85304819D02*
X113638095Y-85352438D01*
X113638095Y-85352438D02*
X113685714Y-85400057D01*
X113685714Y-85400057D02*
X113733333Y-85495295D01*
X113733333Y-85495295D02*
X113733333Y-85542914D01*
X113733333Y-85542914D02*
X113685714Y-85638152D01*
X113685714Y-85638152D02*
X113638095Y-85685771D01*
X113638095Y-85685771D02*
X113542857Y-85733390D01*
X113542857Y-85733390D02*
X113352381Y-85733390D01*
X113352381Y-85733390D02*
X113257143Y-85781009D01*
X113257143Y-85781009D02*
X113209524Y-85828628D01*
X113209524Y-85828628D02*
X113161905Y-85923866D01*
X113161905Y-85923866D02*
X113161905Y-86114342D01*
X113161905Y-86114342D02*
X113209524Y-86209580D01*
X113209524Y-86209580D02*
X113257143Y-86257200D01*
X113257143Y-86257200D02*
X113352381Y-86304819D01*
X113352381Y-86304819D02*
X113542857Y-86304819D01*
X113542857Y-86304819D02*
X113638095Y-86257200D01*
X113638095Y-86257200D02*
X113685714Y-86209580D01*
X113685714Y-86209580D02*
X113733333Y-86114342D01*
X113733333Y-86114342D02*
X113733333Y-85923866D01*
X113733333Y-85923866D02*
X113685714Y-85828628D01*
X113685714Y-85828628D02*
X113638095Y-85781009D01*
X113638095Y-85781009D02*
X113542857Y-85733390D01*
X156466667Y-94957200D02*
X156609524Y-95004819D01*
X156609524Y-95004819D02*
X156847619Y-95004819D01*
X156847619Y-95004819D02*
X156942857Y-94957200D01*
X156942857Y-94957200D02*
X156990476Y-94909580D01*
X156990476Y-94909580D02*
X157038095Y-94814342D01*
X157038095Y-94814342D02*
X157038095Y-94719104D01*
X157038095Y-94719104D02*
X156990476Y-94623866D01*
X156990476Y-94623866D02*
X156942857Y-94576247D01*
X156942857Y-94576247D02*
X156847619Y-94528628D01*
X156847619Y-94528628D02*
X156657143Y-94481009D01*
X156657143Y-94481009D02*
X156561905Y-94433390D01*
X156561905Y-94433390D02*
X156514286Y-94385771D01*
X156514286Y-94385771D02*
X156466667Y-94290533D01*
X156466667Y-94290533D02*
X156466667Y-94195295D01*
X156466667Y-94195295D02*
X156514286Y-94100057D01*
X156514286Y-94100057D02*
X156561905Y-94052438D01*
X156561905Y-94052438D02*
X156657143Y-94004819D01*
X156657143Y-94004819D02*
X156895238Y-94004819D01*
X156895238Y-94004819D02*
X157038095Y-94052438D01*
X157371429Y-94004819D02*
X157609524Y-95004819D01*
X157609524Y-95004819D02*
X157800000Y-94290533D01*
X157800000Y-94290533D02*
X157990476Y-95004819D01*
X157990476Y-95004819D02*
X158228572Y-94004819D01*
X158561905Y-94100057D02*
X158609524Y-94052438D01*
X158609524Y-94052438D02*
X158704762Y-94004819D01*
X158704762Y-94004819D02*
X158942857Y-94004819D01*
X158942857Y-94004819D02*
X159038095Y-94052438D01*
X159038095Y-94052438D02*
X159085714Y-94100057D01*
X159085714Y-94100057D02*
X159133333Y-94195295D01*
X159133333Y-94195295D02*
X159133333Y-94290533D01*
X159133333Y-94290533D02*
X159085714Y-94433390D01*
X159085714Y-94433390D02*
X158514286Y-95004819D01*
X158514286Y-95004819D02*
X159133333Y-95004819D01*
X128613095Y-104804819D02*
X128613095Y-105614342D01*
X128613095Y-105614342D02*
X128660714Y-105709580D01*
X128660714Y-105709580D02*
X128708333Y-105757200D01*
X128708333Y-105757200D02*
X128803571Y-105804819D01*
X128803571Y-105804819D02*
X128994047Y-105804819D01*
X128994047Y-105804819D02*
X129089285Y-105757200D01*
X129089285Y-105757200D02*
X129136904Y-105709580D01*
X129136904Y-105709580D02*
X129184523Y-105614342D01*
X129184523Y-105614342D02*
X129184523Y-104804819D01*
X129613095Y-104900057D02*
X129660714Y-104852438D01*
X129660714Y-104852438D02*
X129755952Y-104804819D01*
X129755952Y-104804819D02*
X129994047Y-104804819D01*
X129994047Y-104804819D02*
X130089285Y-104852438D01*
X130089285Y-104852438D02*
X130136904Y-104900057D01*
X130136904Y-104900057D02*
X130184523Y-104995295D01*
X130184523Y-104995295D02*
X130184523Y-105090533D01*
X130184523Y-105090533D02*
X130136904Y-105233390D01*
X130136904Y-105233390D02*
X129565476Y-105804819D01*
X129565476Y-105804819D02*
X130184523Y-105804819D01*
X167638095Y-81444819D02*
X167638095Y-82254342D01*
X167638095Y-82254342D02*
X167685714Y-82349580D01*
X167685714Y-82349580D02*
X167733333Y-82397200D01*
X167733333Y-82397200D02*
X167828571Y-82444819D01*
X167828571Y-82444819D02*
X168019047Y-82444819D01*
X168019047Y-82444819D02*
X168114285Y-82397200D01*
X168114285Y-82397200D02*
X168161904Y-82349580D01*
X168161904Y-82349580D02*
X168209523Y-82254342D01*
X168209523Y-82254342D02*
X168209523Y-81444819D01*
X169114285Y-81778152D02*
X169114285Y-82444819D01*
X168876190Y-81397200D02*
X168638095Y-82111485D01*
X168638095Y-82111485D02*
X169257142Y-82111485D01*
X88309580Y-85166666D02*
X88357200Y-85214285D01*
X88357200Y-85214285D02*
X88404819Y-85357142D01*
X88404819Y-85357142D02*
X88404819Y-85452380D01*
X88404819Y-85452380D02*
X88357200Y-85595237D01*
X88357200Y-85595237D02*
X88261961Y-85690475D01*
X88261961Y-85690475D02*
X88166723Y-85738094D01*
X88166723Y-85738094D02*
X87976247Y-85785713D01*
X87976247Y-85785713D02*
X87833390Y-85785713D01*
X87833390Y-85785713D02*
X87642914Y-85738094D01*
X87642914Y-85738094D02*
X87547676Y-85690475D01*
X87547676Y-85690475D02*
X87452438Y-85595237D01*
X87452438Y-85595237D02*
X87404819Y-85452380D01*
X87404819Y-85452380D02*
X87404819Y-85357142D01*
X87404819Y-85357142D02*
X87452438Y-85214285D01*
X87452438Y-85214285D02*
X87500057Y-85166666D01*
X87404819Y-84261904D02*
X87404819Y-84738094D01*
X87404819Y-84738094D02*
X87881009Y-84785713D01*
X87881009Y-84785713D02*
X87833390Y-84738094D01*
X87833390Y-84738094D02*
X87785771Y-84642856D01*
X87785771Y-84642856D02*
X87785771Y-84404761D01*
X87785771Y-84404761D02*
X87833390Y-84309523D01*
X87833390Y-84309523D02*
X87881009Y-84261904D01*
X87881009Y-84261904D02*
X87976247Y-84214285D01*
X87976247Y-84214285D02*
X88214342Y-84214285D01*
X88214342Y-84214285D02*
X88309580Y-84261904D01*
X88309580Y-84261904D02*
X88357200Y-84309523D01*
X88357200Y-84309523D02*
X88404819Y-84404761D01*
X88404819Y-84404761D02*
X88404819Y-84642856D01*
X88404819Y-84642856D02*
X88357200Y-84738094D01*
X88357200Y-84738094D02*
X88309580Y-84785713D01*
X156516667Y-113507200D02*
X156659524Y-113554819D01*
X156659524Y-113554819D02*
X156897619Y-113554819D01*
X156897619Y-113554819D02*
X156992857Y-113507200D01*
X156992857Y-113507200D02*
X157040476Y-113459580D01*
X157040476Y-113459580D02*
X157088095Y-113364342D01*
X157088095Y-113364342D02*
X157088095Y-113269104D01*
X157088095Y-113269104D02*
X157040476Y-113173866D01*
X157040476Y-113173866D02*
X156992857Y-113126247D01*
X156992857Y-113126247D02*
X156897619Y-113078628D01*
X156897619Y-113078628D02*
X156707143Y-113031009D01*
X156707143Y-113031009D02*
X156611905Y-112983390D01*
X156611905Y-112983390D02*
X156564286Y-112935771D01*
X156564286Y-112935771D02*
X156516667Y-112840533D01*
X156516667Y-112840533D02*
X156516667Y-112745295D01*
X156516667Y-112745295D02*
X156564286Y-112650057D01*
X156564286Y-112650057D02*
X156611905Y-112602438D01*
X156611905Y-112602438D02*
X156707143Y-112554819D01*
X156707143Y-112554819D02*
X156945238Y-112554819D01*
X156945238Y-112554819D02*
X157088095Y-112602438D01*
X157421429Y-112554819D02*
X157659524Y-113554819D01*
X157659524Y-113554819D02*
X157850000Y-112840533D01*
X157850000Y-112840533D02*
X158040476Y-113554819D01*
X158040476Y-113554819D02*
X158278572Y-112554819D01*
X159088095Y-112888152D02*
X159088095Y-113554819D01*
X158850000Y-112507200D02*
X158611905Y-113221485D01*
X158611905Y-113221485D02*
X159230952Y-113221485D01*
X91561905Y-117104819D02*
X91561905Y-117914342D01*
X91561905Y-117914342D02*
X91609524Y-118009580D01*
X91609524Y-118009580D02*
X91657143Y-118057200D01*
X91657143Y-118057200D02*
X91752381Y-118104819D01*
X91752381Y-118104819D02*
X91942857Y-118104819D01*
X91942857Y-118104819D02*
X92038095Y-118057200D01*
X92038095Y-118057200D02*
X92085714Y-118009580D01*
X92085714Y-118009580D02*
X92133333Y-117914342D01*
X92133333Y-117914342D02*
X92133333Y-117104819D01*
X93133333Y-118104819D02*
X92561905Y-118104819D01*
X92847619Y-118104819D02*
X92847619Y-117104819D01*
X92847619Y-117104819D02*
X92752381Y-117247676D01*
X92752381Y-117247676D02*
X92657143Y-117342914D01*
X92657143Y-117342914D02*
X92561905Y-117390533D01*
X93466667Y-117104819D02*
X94085714Y-117104819D01*
X94085714Y-117104819D02*
X93752381Y-117485771D01*
X93752381Y-117485771D02*
X93895238Y-117485771D01*
X93895238Y-117485771D02*
X93990476Y-117533390D01*
X93990476Y-117533390D02*
X94038095Y-117581009D01*
X94038095Y-117581009D02*
X94085714Y-117676247D01*
X94085714Y-117676247D02*
X94085714Y-117914342D01*
X94085714Y-117914342D02*
X94038095Y-118009580D01*
X94038095Y-118009580D02*
X93990476Y-118057200D01*
X93990476Y-118057200D02*
X93895238Y-118104819D01*
X93895238Y-118104819D02*
X93609524Y-118104819D01*
X93609524Y-118104819D02*
X93514286Y-118057200D01*
X93514286Y-118057200D02*
X93466667Y-118009580D01*
X150308333Y-112854819D02*
X149975000Y-112378628D01*
X149736905Y-112854819D02*
X149736905Y-111854819D01*
X149736905Y-111854819D02*
X150117857Y-111854819D01*
X150117857Y-111854819D02*
X150213095Y-111902438D01*
X150213095Y-111902438D02*
X150260714Y-111950057D01*
X150260714Y-111950057D02*
X150308333Y-112045295D01*
X150308333Y-112045295D02*
X150308333Y-112188152D01*
X150308333Y-112188152D02*
X150260714Y-112283390D01*
X150260714Y-112283390D02*
X150213095Y-112331009D01*
X150213095Y-112331009D02*
X150117857Y-112378628D01*
X150117857Y-112378628D02*
X149736905Y-112378628D01*
X150689286Y-111950057D02*
X150736905Y-111902438D01*
X150736905Y-111902438D02*
X150832143Y-111854819D01*
X150832143Y-111854819D02*
X151070238Y-111854819D01*
X151070238Y-111854819D02*
X151165476Y-111902438D01*
X151165476Y-111902438D02*
X151213095Y-111950057D01*
X151213095Y-111950057D02*
X151260714Y-112045295D01*
X151260714Y-112045295D02*
X151260714Y-112140533D01*
X151260714Y-112140533D02*
X151213095Y-112283390D01*
X151213095Y-112283390D02*
X150641667Y-112854819D01*
X150641667Y-112854819D02*
X151260714Y-112854819D01*
X82084819Y-103261904D02*
X82894342Y-103261904D01*
X82894342Y-103261904D02*
X82989580Y-103214285D01*
X82989580Y-103214285D02*
X83037200Y-103166666D01*
X83037200Y-103166666D02*
X83084819Y-103071428D01*
X83084819Y-103071428D02*
X83084819Y-102880952D01*
X83084819Y-102880952D02*
X83037200Y-102785714D01*
X83037200Y-102785714D02*
X82989580Y-102738095D01*
X82989580Y-102738095D02*
X82894342Y-102690476D01*
X82894342Y-102690476D02*
X82084819Y-102690476D01*
X82084819Y-102309523D02*
X82084819Y-101642857D01*
X82084819Y-101642857D02*
X83084819Y-102071428D01*
X118733333Y-99924819D02*
X118400000Y-99448628D01*
X118161905Y-99924819D02*
X118161905Y-98924819D01*
X118161905Y-98924819D02*
X118542857Y-98924819D01*
X118542857Y-98924819D02*
X118638095Y-98972438D01*
X118638095Y-98972438D02*
X118685714Y-99020057D01*
X118685714Y-99020057D02*
X118733333Y-99115295D01*
X118733333Y-99115295D02*
X118733333Y-99258152D01*
X118733333Y-99258152D02*
X118685714Y-99353390D01*
X118685714Y-99353390D02*
X118638095Y-99401009D01*
X118638095Y-99401009D02*
X118542857Y-99448628D01*
X118542857Y-99448628D02*
X118161905Y-99448628D01*
X119066667Y-98924819D02*
X119733333Y-98924819D01*
X119733333Y-98924819D02*
X119304762Y-99924819D01*
X121003333Y-106319580D02*
X120955714Y-106367200D01*
X120955714Y-106367200D02*
X120812857Y-106414819D01*
X120812857Y-106414819D02*
X120717619Y-106414819D01*
X120717619Y-106414819D02*
X120574762Y-106367200D01*
X120574762Y-106367200D02*
X120479524Y-106271961D01*
X120479524Y-106271961D02*
X120431905Y-106176723D01*
X120431905Y-106176723D02*
X120384286Y-105986247D01*
X120384286Y-105986247D02*
X120384286Y-105843390D01*
X120384286Y-105843390D02*
X120431905Y-105652914D01*
X120431905Y-105652914D02*
X120479524Y-105557676D01*
X120479524Y-105557676D02*
X120574762Y-105462438D01*
X120574762Y-105462438D02*
X120717619Y-105414819D01*
X120717619Y-105414819D02*
X120812857Y-105414819D01*
X120812857Y-105414819D02*
X120955714Y-105462438D01*
X120955714Y-105462438D02*
X121003333Y-105510057D01*
X121384286Y-105510057D02*
X121431905Y-105462438D01*
X121431905Y-105462438D02*
X121527143Y-105414819D01*
X121527143Y-105414819D02*
X121765238Y-105414819D01*
X121765238Y-105414819D02*
X121860476Y-105462438D01*
X121860476Y-105462438D02*
X121908095Y-105510057D01*
X121908095Y-105510057D02*
X121955714Y-105605295D01*
X121955714Y-105605295D02*
X121955714Y-105700533D01*
X121955714Y-105700533D02*
X121908095Y-105843390D01*
X121908095Y-105843390D02*
X121336667Y-106414819D01*
X121336667Y-106414819D02*
X121955714Y-106414819D01*
X83904819Y-115343333D02*
X84619104Y-115343333D01*
X84619104Y-115343333D02*
X84761961Y-115390952D01*
X84761961Y-115390952D02*
X84857200Y-115486190D01*
X84857200Y-115486190D02*
X84904819Y-115629047D01*
X84904819Y-115629047D02*
X84904819Y-115724285D01*
X84904819Y-114343333D02*
X84904819Y-114914761D01*
X84904819Y-114629047D02*
X83904819Y-114629047D01*
X83904819Y-114629047D02*
X84047676Y-114724285D01*
X84047676Y-114724285D02*
X84142914Y-114819523D01*
X84142914Y-114819523D02*
X84190533Y-114914761D01*
X77096905Y-85329819D02*
X77096905Y-86139342D01*
X77096905Y-86139342D02*
X77144524Y-86234580D01*
X77144524Y-86234580D02*
X77192143Y-86282200D01*
X77192143Y-86282200D02*
X77287381Y-86329819D01*
X77287381Y-86329819D02*
X77477857Y-86329819D01*
X77477857Y-86329819D02*
X77573095Y-86282200D01*
X77573095Y-86282200D02*
X77620714Y-86234580D01*
X77620714Y-86234580D02*
X77668333Y-86139342D01*
X77668333Y-86139342D02*
X77668333Y-85329819D01*
X78668333Y-86329819D02*
X78096905Y-86329819D01*
X78382619Y-86329819D02*
X78382619Y-85329819D01*
X78382619Y-85329819D02*
X78287381Y-85472676D01*
X78287381Y-85472676D02*
X78192143Y-85567914D01*
X78192143Y-85567914D02*
X78096905Y-85615533D01*
X79049286Y-85425057D02*
X79096905Y-85377438D01*
X79096905Y-85377438D02*
X79192143Y-85329819D01*
X79192143Y-85329819D02*
X79430238Y-85329819D01*
X79430238Y-85329819D02*
X79525476Y-85377438D01*
X79525476Y-85377438D02*
X79573095Y-85425057D01*
X79573095Y-85425057D02*
X79620714Y-85520295D01*
X79620714Y-85520295D02*
X79620714Y-85615533D01*
X79620714Y-85615533D02*
X79573095Y-85758390D01*
X79573095Y-85758390D02*
X79001667Y-86329819D01*
X79001667Y-86329819D02*
X79620714Y-86329819D01*
X128403333Y-97759580D02*
X128355714Y-97807200D01*
X128355714Y-97807200D02*
X128212857Y-97854819D01*
X128212857Y-97854819D02*
X128117619Y-97854819D01*
X128117619Y-97854819D02*
X127974762Y-97807200D01*
X127974762Y-97807200D02*
X127879524Y-97711961D01*
X127879524Y-97711961D02*
X127831905Y-97616723D01*
X127831905Y-97616723D02*
X127784286Y-97426247D01*
X127784286Y-97426247D02*
X127784286Y-97283390D01*
X127784286Y-97283390D02*
X127831905Y-97092914D01*
X127831905Y-97092914D02*
X127879524Y-96997676D01*
X127879524Y-96997676D02*
X127974762Y-96902438D01*
X127974762Y-96902438D02*
X128117619Y-96854819D01*
X128117619Y-96854819D02*
X128212857Y-96854819D01*
X128212857Y-96854819D02*
X128355714Y-96902438D01*
X128355714Y-96902438D02*
X128403333Y-96950057D01*
X128879524Y-97854819D02*
X129070000Y-97854819D01*
X129070000Y-97854819D02*
X129165238Y-97807200D01*
X129165238Y-97807200D02*
X129212857Y-97759580D01*
X129212857Y-97759580D02*
X129308095Y-97616723D01*
X129308095Y-97616723D02*
X129355714Y-97426247D01*
X129355714Y-97426247D02*
X129355714Y-97045295D01*
X129355714Y-97045295D02*
X129308095Y-96950057D01*
X129308095Y-96950057D02*
X129260476Y-96902438D01*
X129260476Y-96902438D02*
X129165238Y-96854819D01*
X129165238Y-96854819D02*
X128974762Y-96854819D01*
X128974762Y-96854819D02*
X128879524Y-96902438D01*
X128879524Y-96902438D02*
X128831905Y-96950057D01*
X128831905Y-96950057D02*
X128784286Y-97045295D01*
X128784286Y-97045295D02*
X128784286Y-97283390D01*
X128784286Y-97283390D02*
X128831905Y-97378628D01*
X128831905Y-97378628D02*
X128879524Y-97426247D01*
X128879524Y-97426247D02*
X128974762Y-97473866D01*
X128974762Y-97473866D02*
X129165238Y-97473866D01*
X129165238Y-97473866D02*
X129260476Y-97426247D01*
X129260476Y-97426247D02*
X129308095Y-97378628D01*
X129308095Y-97378628D02*
X129355714Y-97283390D01*
X128316667Y-113507200D02*
X128459524Y-113554819D01*
X128459524Y-113554819D02*
X128697619Y-113554819D01*
X128697619Y-113554819D02*
X128792857Y-113507200D01*
X128792857Y-113507200D02*
X128840476Y-113459580D01*
X128840476Y-113459580D02*
X128888095Y-113364342D01*
X128888095Y-113364342D02*
X128888095Y-113269104D01*
X128888095Y-113269104D02*
X128840476Y-113173866D01*
X128840476Y-113173866D02*
X128792857Y-113126247D01*
X128792857Y-113126247D02*
X128697619Y-113078628D01*
X128697619Y-113078628D02*
X128507143Y-113031009D01*
X128507143Y-113031009D02*
X128411905Y-112983390D01*
X128411905Y-112983390D02*
X128364286Y-112935771D01*
X128364286Y-112935771D02*
X128316667Y-112840533D01*
X128316667Y-112840533D02*
X128316667Y-112745295D01*
X128316667Y-112745295D02*
X128364286Y-112650057D01*
X128364286Y-112650057D02*
X128411905Y-112602438D01*
X128411905Y-112602438D02*
X128507143Y-112554819D01*
X128507143Y-112554819D02*
X128745238Y-112554819D01*
X128745238Y-112554819D02*
X128888095Y-112602438D01*
X129221429Y-112554819D02*
X129459524Y-113554819D01*
X129459524Y-113554819D02*
X129650000Y-112840533D01*
X129650000Y-112840533D02*
X129840476Y-113554819D01*
X129840476Y-113554819D02*
X130078572Y-112554819D01*
X130888095Y-112554819D02*
X130697619Y-112554819D01*
X130697619Y-112554819D02*
X130602381Y-112602438D01*
X130602381Y-112602438D02*
X130554762Y-112650057D01*
X130554762Y-112650057D02*
X130459524Y-112792914D01*
X130459524Y-112792914D02*
X130411905Y-112983390D01*
X130411905Y-112983390D02*
X130411905Y-113364342D01*
X130411905Y-113364342D02*
X130459524Y-113459580D01*
X130459524Y-113459580D02*
X130507143Y-113507200D01*
X130507143Y-113507200D02*
X130602381Y-113554819D01*
X130602381Y-113554819D02*
X130792857Y-113554819D01*
X130792857Y-113554819D02*
X130888095Y-113507200D01*
X130888095Y-113507200D02*
X130935714Y-113459580D01*
X130935714Y-113459580D02*
X130983333Y-113364342D01*
X130983333Y-113364342D02*
X130983333Y-113126247D01*
X130983333Y-113126247D02*
X130935714Y-113031009D01*
X130935714Y-113031009D02*
X130888095Y-112983390D01*
X130888095Y-112983390D02*
X130792857Y-112935771D01*
X130792857Y-112935771D02*
X130602381Y-112935771D01*
X130602381Y-112935771D02*
X130507143Y-112983390D01*
X130507143Y-112983390D02*
X130459524Y-113031009D01*
X130459524Y-113031009D02*
X130411905Y-113126247D01*
X145982142Y-89424819D02*
X145648809Y-88948628D01*
X145410714Y-89424819D02*
X145410714Y-88424819D01*
X145410714Y-88424819D02*
X145791666Y-88424819D01*
X145791666Y-88424819D02*
X145886904Y-88472438D01*
X145886904Y-88472438D02*
X145934523Y-88520057D01*
X145934523Y-88520057D02*
X145982142Y-88615295D01*
X145982142Y-88615295D02*
X145982142Y-88758152D01*
X145982142Y-88758152D02*
X145934523Y-88853390D01*
X145934523Y-88853390D02*
X145886904Y-88901009D01*
X145886904Y-88901009D02*
X145791666Y-88948628D01*
X145791666Y-88948628D02*
X145410714Y-88948628D01*
X146934523Y-89424819D02*
X146363095Y-89424819D01*
X146648809Y-89424819D02*
X146648809Y-88424819D01*
X146648809Y-88424819D02*
X146553571Y-88567676D01*
X146553571Y-88567676D02*
X146458333Y-88662914D01*
X146458333Y-88662914D02*
X146363095Y-88710533D01*
X147553571Y-88424819D02*
X147648809Y-88424819D01*
X147648809Y-88424819D02*
X147744047Y-88472438D01*
X147744047Y-88472438D02*
X147791666Y-88520057D01*
X147791666Y-88520057D02*
X147839285Y-88615295D01*
X147839285Y-88615295D02*
X147886904Y-88805771D01*
X147886904Y-88805771D02*
X147886904Y-89043866D01*
X147886904Y-89043866D02*
X147839285Y-89234342D01*
X147839285Y-89234342D02*
X147791666Y-89329580D01*
X147791666Y-89329580D02*
X147744047Y-89377200D01*
X147744047Y-89377200D02*
X147648809Y-89424819D01*
X147648809Y-89424819D02*
X147553571Y-89424819D01*
X147553571Y-89424819D02*
X147458333Y-89377200D01*
X147458333Y-89377200D02*
X147410714Y-89329580D01*
X147410714Y-89329580D02*
X147363095Y-89234342D01*
X147363095Y-89234342D02*
X147315476Y-89043866D01*
X147315476Y-89043866D02*
X147315476Y-88805771D01*
X147315476Y-88805771D02*
X147363095Y-88615295D01*
X147363095Y-88615295D02*
X147410714Y-88520057D01*
X147410714Y-88520057D02*
X147458333Y-88472438D01*
X147458333Y-88472438D02*
X147553571Y-88424819D01*
X130273809Y-96078628D02*
X130273809Y-96554819D01*
X129940476Y-95554819D02*
X130273809Y-96078628D01*
X130273809Y-96078628D02*
X130607142Y-95554819D01*
X131464285Y-96554819D02*
X130892857Y-96554819D01*
X131178571Y-96554819D02*
X131178571Y-95554819D01*
X131178571Y-95554819D02*
X131083333Y-95697676D01*
X131083333Y-95697676D02*
X130988095Y-95792914D01*
X130988095Y-95792914D02*
X130892857Y-95840533D01*
X156416667Y-104357200D02*
X156559524Y-104404819D01*
X156559524Y-104404819D02*
X156797619Y-104404819D01*
X156797619Y-104404819D02*
X156892857Y-104357200D01*
X156892857Y-104357200D02*
X156940476Y-104309580D01*
X156940476Y-104309580D02*
X156988095Y-104214342D01*
X156988095Y-104214342D02*
X156988095Y-104119104D01*
X156988095Y-104119104D02*
X156940476Y-104023866D01*
X156940476Y-104023866D02*
X156892857Y-103976247D01*
X156892857Y-103976247D02*
X156797619Y-103928628D01*
X156797619Y-103928628D02*
X156607143Y-103881009D01*
X156607143Y-103881009D02*
X156511905Y-103833390D01*
X156511905Y-103833390D02*
X156464286Y-103785771D01*
X156464286Y-103785771D02*
X156416667Y-103690533D01*
X156416667Y-103690533D02*
X156416667Y-103595295D01*
X156416667Y-103595295D02*
X156464286Y-103500057D01*
X156464286Y-103500057D02*
X156511905Y-103452438D01*
X156511905Y-103452438D02*
X156607143Y-103404819D01*
X156607143Y-103404819D02*
X156845238Y-103404819D01*
X156845238Y-103404819D02*
X156988095Y-103452438D01*
X157321429Y-103404819D02*
X157559524Y-104404819D01*
X157559524Y-104404819D02*
X157750000Y-103690533D01*
X157750000Y-103690533D02*
X157940476Y-104404819D01*
X157940476Y-104404819D02*
X158178572Y-103404819D01*
X158464286Y-103404819D02*
X159083333Y-103404819D01*
X159083333Y-103404819D02*
X158750000Y-103785771D01*
X158750000Y-103785771D02*
X158892857Y-103785771D01*
X158892857Y-103785771D02*
X158988095Y-103833390D01*
X158988095Y-103833390D02*
X159035714Y-103881009D01*
X159035714Y-103881009D02*
X159083333Y-103976247D01*
X159083333Y-103976247D02*
X159083333Y-104214342D01*
X159083333Y-104214342D02*
X159035714Y-104309580D01*
X159035714Y-104309580D02*
X158988095Y-104357200D01*
X158988095Y-104357200D02*
X158892857Y-104404819D01*
X158892857Y-104404819D02*
X158607143Y-104404819D01*
X158607143Y-104404819D02*
X158511905Y-104357200D01*
X158511905Y-104357200D02*
X158464286Y-104309580D01*
X167038095Y-102184819D02*
X167038095Y-102994342D01*
X167038095Y-102994342D02*
X167085714Y-103089580D01*
X167085714Y-103089580D02*
X167133333Y-103137200D01*
X167133333Y-103137200D02*
X167228571Y-103184819D01*
X167228571Y-103184819D02*
X167419047Y-103184819D01*
X167419047Y-103184819D02*
X167514285Y-103137200D01*
X167514285Y-103137200D02*
X167561904Y-103089580D01*
X167561904Y-103089580D02*
X167609523Y-102994342D01*
X167609523Y-102994342D02*
X167609523Y-102184819D01*
X168561904Y-102184819D02*
X168085714Y-102184819D01*
X168085714Y-102184819D02*
X168038095Y-102661009D01*
X168038095Y-102661009D02*
X168085714Y-102613390D01*
X168085714Y-102613390D02*
X168180952Y-102565771D01*
X168180952Y-102565771D02*
X168419047Y-102565771D01*
X168419047Y-102565771D02*
X168514285Y-102613390D01*
X168514285Y-102613390D02*
X168561904Y-102661009D01*
X168561904Y-102661009D02*
X168609523Y-102756247D01*
X168609523Y-102756247D02*
X168609523Y-102994342D01*
X168609523Y-102994342D02*
X168561904Y-103089580D01*
X168561904Y-103089580D02*
X168514285Y-103137200D01*
X168514285Y-103137200D02*
X168419047Y-103184819D01*
X168419047Y-103184819D02*
X168180952Y-103184819D01*
X168180952Y-103184819D02*
X168085714Y-103137200D01*
X168085714Y-103137200D02*
X168038095Y-103089580D01*
X133983333Y-94059580D02*
X133935714Y-94107200D01*
X133935714Y-94107200D02*
X133792857Y-94154819D01*
X133792857Y-94154819D02*
X133697619Y-94154819D01*
X133697619Y-94154819D02*
X133554762Y-94107200D01*
X133554762Y-94107200D02*
X133459524Y-94011961D01*
X133459524Y-94011961D02*
X133411905Y-93916723D01*
X133411905Y-93916723D02*
X133364286Y-93726247D01*
X133364286Y-93726247D02*
X133364286Y-93583390D01*
X133364286Y-93583390D02*
X133411905Y-93392914D01*
X133411905Y-93392914D02*
X133459524Y-93297676D01*
X133459524Y-93297676D02*
X133554762Y-93202438D01*
X133554762Y-93202438D02*
X133697619Y-93154819D01*
X133697619Y-93154819D02*
X133792857Y-93154819D01*
X133792857Y-93154819D02*
X133935714Y-93202438D01*
X133935714Y-93202438D02*
X133983333Y-93250057D01*
X134554762Y-93583390D02*
X134459524Y-93535771D01*
X134459524Y-93535771D02*
X134411905Y-93488152D01*
X134411905Y-93488152D02*
X134364286Y-93392914D01*
X134364286Y-93392914D02*
X134364286Y-93345295D01*
X134364286Y-93345295D02*
X134411905Y-93250057D01*
X134411905Y-93250057D02*
X134459524Y-93202438D01*
X134459524Y-93202438D02*
X134554762Y-93154819D01*
X134554762Y-93154819D02*
X134745238Y-93154819D01*
X134745238Y-93154819D02*
X134840476Y-93202438D01*
X134840476Y-93202438D02*
X134888095Y-93250057D01*
X134888095Y-93250057D02*
X134935714Y-93345295D01*
X134935714Y-93345295D02*
X134935714Y-93392914D01*
X134935714Y-93392914D02*
X134888095Y-93488152D01*
X134888095Y-93488152D02*
X134840476Y-93535771D01*
X134840476Y-93535771D02*
X134745238Y-93583390D01*
X134745238Y-93583390D02*
X134554762Y-93583390D01*
X134554762Y-93583390D02*
X134459524Y-93631009D01*
X134459524Y-93631009D02*
X134411905Y-93678628D01*
X134411905Y-93678628D02*
X134364286Y-93773866D01*
X134364286Y-93773866D02*
X134364286Y-93964342D01*
X134364286Y-93964342D02*
X134411905Y-94059580D01*
X134411905Y-94059580D02*
X134459524Y-94107200D01*
X134459524Y-94107200D02*
X134554762Y-94154819D01*
X134554762Y-94154819D02*
X134745238Y-94154819D01*
X134745238Y-94154819D02*
X134840476Y-94107200D01*
X134840476Y-94107200D02*
X134888095Y-94059580D01*
X134888095Y-94059580D02*
X134935714Y-93964342D01*
X134935714Y-93964342D02*
X134935714Y-93773866D01*
X134935714Y-93773866D02*
X134888095Y-93678628D01*
X134888095Y-93678628D02*
X134840476Y-93631009D01*
X134840476Y-93631009D02*
X134745238Y-93583390D01*
X156494819Y-81588094D02*
X157304342Y-81588094D01*
X157304342Y-81588094D02*
X157399580Y-81540475D01*
X157399580Y-81540475D02*
X157447200Y-81492856D01*
X157447200Y-81492856D02*
X157494819Y-81397618D01*
X157494819Y-81397618D02*
X157494819Y-81207142D01*
X157494819Y-81207142D02*
X157447200Y-81111904D01*
X157447200Y-81111904D02*
X157399580Y-81064285D01*
X157399580Y-81064285D02*
X157304342Y-81016666D01*
X157304342Y-81016666D02*
X156494819Y-81016666D01*
X157494819Y-80016666D02*
X157494819Y-80588094D01*
X157494819Y-80302380D02*
X156494819Y-80302380D01*
X156494819Y-80302380D02*
X156637676Y-80397618D01*
X156637676Y-80397618D02*
X156732914Y-80492856D01*
X156732914Y-80492856D02*
X156780533Y-80588094D01*
X156494819Y-79397618D02*
X156494819Y-79302380D01*
X156494819Y-79302380D02*
X156542438Y-79207142D01*
X156542438Y-79207142D02*
X156590057Y-79159523D01*
X156590057Y-79159523D02*
X156685295Y-79111904D01*
X156685295Y-79111904D02*
X156875771Y-79064285D01*
X156875771Y-79064285D02*
X157113866Y-79064285D01*
X157113866Y-79064285D02*
X157304342Y-79111904D01*
X157304342Y-79111904D02*
X157399580Y-79159523D01*
X157399580Y-79159523D02*
X157447200Y-79207142D01*
X157447200Y-79207142D02*
X157494819Y-79302380D01*
X157494819Y-79302380D02*
X157494819Y-79397618D01*
X157494819Y-79397618D02*
X157447200Y-79492856D01*
X157447200Y-79492856D02*
X157399580Y-79540475D01*
X157399580Y-79540475D02*
X157304342Y-79588094D01*
X157304342Y-79588094D02*
X157113866Y-79635713D01*
X157113866Y-79635713D02*
X156875771Y-79635713D01*
X156875771Y-79635713D02*
X156685295Y-79588094D01*
X156685295Y-79588094D02*
X156590057Y-79540475D01*
X156590057Y-79540475D02*
X156542438Y-79492856D01*
X156542438Y-79492856D02*
X156494819Y-79397618D01*
X89238095Y-92354819D02*
X89238095Y-93164342D01*
X89238095Y-93164342D02*
X89285714Y-93259580D01*
X89285714Y-93259580D02*
X89333333Y-93307200D01*
X89333333Y-93307200D02*
X89428571Y-93354819D01*
X89428571Y-93354819D02*
X89619047Y-93354819D01*
X89619047Y-93354819D02*
X89714285Y-93307200D01*
X89714285Y-93307200D02*
X89761904Y-93259580D01*
X89761904Y-93259580D02*
X89809523Y-93164342D01*
X89809523Y-93164342D02*
X89809523Y-92354819D01*
X90428571Y-92783390D02*
X90333333Y-92735771D01*
X90333333Y-92735771D02*
X90285714Y-92688152D01*
X90285714Y-92688152D02*
X90238095Y-92592914D01*
X90238095Y-92592914D02*
X90238095Y-92545295D01*
X90238095Y-92545295D02*
X90285714Y-92450057D01*
X90285714Y-92450057D02*
X90333333Y-92402438D01*
X90333333Y-92402438D02*
X90428571Y-92354819D01*
X90428571Y-92354819D02*
X90619047Y-92354819D01*
X90619047Y-92354819D02*
X90714285Y-92402438D01*
X90714285Y-92402438D02*
X90761904Y-92450057D01*
X90761904Y-92450057D02*
X90809523Y-92545295D01*
X90809523Y-92545295D02*
X90809523Y-92592914D01*
X90809523Y-92592914D02*
X90761904Y-92688152D01*
X90761904Y-92688152D02*
X90714285Y-92735771D01*
X90714285Y-92735771D02*
X90619047Y-92783390D01*
X90619047Y-92783390D02*
X90428571Y-92783390D01*
X90428571Y-92783390D02*
X90333333Y-92831009D01*
X90333333Y-92831009D02*
X90285714Y-92878628D01*
X90285714Y-92878628D02*
X90238095Y-92973866D01*
X90238095Y-92973866D02*
X90238095Y-93164342D01*
X90238095Y-93164342D02*
X90285714Y-93259580D01*
X90285714Y-93259580D02*
X90333333Y-93307200D01*
X90333333Y-93307200D02*
X90428571Y-93354819D01*
X90428571Y-93354819D02*
X90619047Y-93354819D01*
X90619047Y-93354819D02*
X90714285Y-93307200D01*
X90714285Y-93307200D02*
X90761904Y-93259580D01*
X90761904Y-93259580D02*
X90809523Y-93164342D01*
X90809523Y-93164342D02*
X90809523Y-92973866D01*
X90809523Y-92973866D02*
X90761904Y-92878628D01*
X90761904Y-92878628D02*
X90714285Y-92831009D01*
X90714285Y-92831009D02*
X90619047Y-92783390D01*
X122704819Y-119716666D02*
X122228628Y-120049999D01*
X122704819Y-120288094D02*
X121704819Y-120288094D01*
X121704819Y-120288094D02*
X121704819Y-119907142D01*
X121704819Y-119907142D02*
X121752438Y-119811904D01*
X121752438Y-119811904D02*
X121800057Y-119764285D01*
X121800057Y-119764285D02*
X121895295Y-119716666D01*
X121895295Y-119716666D02*
X122038152Y-119716666D01*
X122038152Y-119716666D02*
X122133390Y-119764285D01*
X122133390Y-119764285D02*
X122181009Y-119811904D01*
X122181009Y-119811904D02*
X122228628Y-119907142D01*
X122228628Y-119907142D02*
X122228628Y-120288094D01*
X121704819Y-118859523D02*
X121704819Y-119049999D01*
X121704819Y-119049999D02*
X121752438Y-119145237D01*
X121752438Y-119145237D02*
X121800057Y-119192856D01*
X121800057Y-119192856D02*
X121942914Y-119288094D01*
X121942914Y-119288094D02*
X122133390Y-119335713D01*
X122133390Y-119335713D02*
X122514342Y-119335713D01*
X122514342Y-119335713D02*
X122609580Y-119288094D01*
X122609580Y-119288094D02*
X122657200Y-119240475D01*
X122657200Y-119240475D02*
X122704819Y-119145237D01*
X122704819Y-119145237D02*
X122704819Y-118954761D01*
X122704819Y-118954761D02*
X122657200Y-118859523D01*
X122657200Y-118859523D02*
X122609580Y-118811904D01*
X122609580Y-118811904D02*
X122514342Y-118764285D01*
X122514342Y-118764285D02*
X122276247Y-118764285D01*
X122276247Y-118764285D02*
X122181009Y-118811904D01*
X122181009Y-118811904D02*
X122133390Y-118859523D01*
X122133390Y-118859523D02*
X122085771Y-118954761D01*
X122085771Y-118954761D02*
X122085771Y-119145237D01*
X122085771Y-119145237D02*
X122133390Y-119240475D01*
X122133390Y-119240475D02*
X122181009Y-119288094D01*
X122181009Y-119288094D02*
X122276247Y-119335713D01*
X135854819Y-119916666D02*
X135378628Y-120249999D01*
X135854819Y-120488094D02*
X134854819Y-120488094D01*
X134854819Y-120488094D02*
X134854819Y-120107142D01*
X134854819Y-120107142D02*
X134902438Y-120011904D01*
X134902438Y-120011904D02*
X134950057Y-119964285D01*
X134950057Y-119964285D02*
X135045295Y-119916666D01*
X135045295Y-119916666D02*
X135188152Y-119916666D01*
X135188152Y-119916666D02*
X135283390Y-119964285D01*
X135283390Y-119964285D02*
X135331009Y-120011904D01*
X135331009Y-120011904D02*
X135378628Y-120107142D01*
X135378628Y-120107142D02*
X135378628Y-120488094D01*
X134854819Y-119011904D02*
X134854819Y-119488094D01*
X134854819Y-119488094D02*
X135331009Y-119535713D01*
X135331009Y-119535713D02*
X135283390Y-119488094D01*
X135283390Y-119488094D02*
X135235771Y-119392856D01*
X135235771Y-119392856D02*
X135235771Y-119154761D01*
X135235771Y-119154761D02*
X135283390Y-119059523D01*
X135283390Y-119059523D02*
X135331009Y-119011904D01*
X135331009Y-119011904D02*
X135426247Y-118964285D01*
X135426247Y-118964285D02*
X135664342Y-118964285D01*
X135664342Y-118964285D02*
X135759580Y-119011904D01*
X135759580Y-119011904D02*
X135807200Y-119059523D01*
X135807200Y-119059523D02*
X135854819Y-119154761D01*
X135854819Y-119154761D02*
X135854819Y-119392856D01*
X135854819Y-119392856D02*
X135807200Y-119488094D01*
X135807200Y-119488094D02*
X135759580Y-119535713D01*
X120633333Y-91824819D02*
X120300000Y-91348628D01*
X120061905Y-91824819D02*
X120061905Y-90824819D01*
X120061905Y-90824819D02*
X120442857Y-90824819D01*
X120442857Y-90824819D02*
X120538095Y-90872438D01*
X120538095Y-90872438D02*
X120585714Y-90920057D01*
X120585714Y-90920057D02*
X120633333Y-91015295D01*
X120633333Y-91015295D02*
X120633333Y-91158152D01*
X120633333Y-91158152D02*
X120585714Y-91253390D01*
X120585714Y-91253390D02*
X120538095Y-91301009D01*
X120538095Y-91301009D02*
X120442857Y-91348628D01*
X120442857Y-91348628D02*
X120061905Y-91348628D01*
X121204762Y-91253390D02*
X121109524Y-91205771D01*
X121109524Y-91205771D02*
X121061905Y-91158152D01*
X121061905Y-91158152D02*
X121014286Y-91062914D01*
X121014286Y-91062914D02*
X121014286Y-91015295D01*
X121014286Y-91015295D02*
X121061905Y-90920057D01*
X121061905Y-90920057D02*
X121109524Y-90872438D01*
X121109524Y-90872438D02*
X121204762Y-90824819D01*
X121204762Y-90824819D02*
X121395238Y-90824819D01*
X121395238Y-90824819D02*
X121490476Y-90872438D01*
X121490476Y-90872438D02*
X121538095Y-90920057D01*
X121538095Y-90920057D02*
X121585714Y-91015295D01*
X121585714Y-91015295D02*
X121585714Y-91062914D01*
X121585714Y-91062914D02*
X121538095Y-91158152D01*
X121538095Y-91158152D02*
X121490476Y-91205771D01*
X121490476Y-91205771D02*
X121395238Y-91253390D01*
X121395238Y-91253390D02*
X121204762Y-91253390D01*
X121204762Y-91253390D02*
X121109524Y-91301009D01*
X121109524Y-91301009D02*
X121061905Y-91348628D01*
X121061905Y-91348628D02*
X121014286Y-91443866D01*
X121014286Y-91443866D02*
X121014286Y-91634342D01*
X121014286Y-91634342D02*
X121061905Y-91729580D01*
X121061905Y-91729580D02*
X121109524Y-91777200D01*
X121109524Y-91777200D02*
X121204762Y-91824819D01*
X121204762Y-91824819D02*
X121395238Y-91824819D01*
X121395238Y-91824819D02*
X121490476Y-91777200D01*
X121490476Y-91777200D02*
X121538095Y-91729580D01*
X121538095Y-91729580D02*
X121585714Y-91634342D01*
X121585714Y-91634342D02*
X121585714Y-91443866D01*
X121585714Y-91443866D02*
X121538095Y-91348628D01*
X121538095Y-91348628D02*
X121490476Y-91301009D01*
X121490476Y-91301009D02*
X121395238Y-91253390D01*
X128233333Y-90279580D02*
X128185714Y-90327200D01*
X128185714Y-90327200D02*
X128042857Y-90374819D01*
X128042857Y-90374819D02*
X127947619Y-90374819D01*
X127947619Y-90374819D02*
X127804762Y-90327200D01*
X127804762Y-90327200D02*
X127709524Y-90231961D01*
X127709524Y-90231961D02*
X127661905Y-90136723D01*
X127661905Y-90136723D02*
X127614286Y-89946247D01*
X127614286Y-89946247D02*
X127614286Y-89803390D01*
X127614286Y-89803390D02*
X127661905Y-89612914D01*
X127661905Y-89612914D02*
X127709524Y-89517676D01*
X127709524Y-89517676D02*
X127804762Y-89422438D01*
X127804762Y-89422438D02*
X127947619Y-89374819D01*
X127947619Y-89374819D02*
X128042857Y-89374819D01*
X128042857Y-89374819D02*
X128185714Y-89422438D01*
X128185714Y-89422438D02*
X128233333Y-89470057D01*
X128566667Y-89374819D02*
X129233333Y-89374819D01*
X129233333Y-89374819D02*
X128804762Y-90374819D01*
X156166667Y-85257200D02*
X156309524Y-85304819D01*
X156309524Y-85304819D02*
X156547619Y-85304819D01*
X156547619Y-85304819D02*
X156642857Y-85257200D01*
X156642857Y-85257200D02*
X156690476Y-85209580D01*
X156690476Y-85209580D02*
X156738095Y-85114342D01*
X156738095Y-85114342D02*
X156738095Y-85019104D01*
X156738095Y-85019104D02*
X156690476Y-84923866D01*
X156690476Y-84923866D02*
X156642857Y-84876247D01*
X156642857Y-84876247D02*
X156547619Y-84828628D01*
X156547619Y-84828628D02*
X156357143Y-84781009D01*
X156357143Y-84781009D02*
X156261905Y-84733390D01*
X156261905Y-84733390D02*
X156214286Y-84685771D01*
X156214286Y-84685771D02*
X156166667Y-84590533D01*
X156166667Y-84590533D02*
X156166667Y-84495295D01*
X156166667Y-84495295D02*
X156214286Y-84400057D01*
X156214286Y-84400057D02*
X156261905Y-84352438D01*
X156261905Y-84352438D02*
X156357143Y-84304819D01*
X156357143Y-84304819D02*
X156595238Y-84304819D01*
X156595238Y-84304819D02*
X156738095Y-84352438D01*
X157071429Y-84304819D02*
X157309524Y-85304819D01*
X157309524Y-85304819D02*
X157500000Y-84590533D01*
X157500000Y-84590533D02*
X157690476Y-85304819D01*
X157690476Y-85304819D02*
X157928572Y-84304819D01*
X158833333Y-85304819D02*
X158261905Y-85304819D01*
X158547619Y-85304819D02*
X158547619Y-84304819D01*
X158547619Y-84304819D02*
X158452381Y-84447676D01*
X158452381Y-84447676D02*
X158357143Y-84542914D01*
X158357143Y-84542914D02*
X158261905Y-84590533D01*
X150333333Y-93884819D02*
X150000000Y-93408628D01*
X149761905Y-93884819D02*
X149761905Y-92884819D01*
X149761905Y-92884819D02*
X150142857Y-92884819D01*
X150142857Y-92884819D02*
X150238095Y-92932438D01*
X150238095Y-92932438D02*
X150285714Y-92980057D01*
X150285714Y-92980057D02*
X150333333Y-93075295D01*
X150333333Y-93075295D02*
X150333333Y-93218152D01*
X150333333Y-93218152D02*
X150285714Y-93313390D01*
X150285714Y-93313390D02*
X150238095Y-93361009D01*
X150238095Y-93361009D02*
X150142857Y-93408628D01*
X150142857Y-93408628D02*
X149761905Y-93408628D01*
X151190476Y-93218152D02*
X151190476Y-93884819D01*
X150952381Y-92837200D02*
X150714286Y-93551485D01*
X150714286Y-93551485D02*
X151333333Y-93551485D01*
X96233333Y-95459580D02*
X96185714Y-95507200D01*
X96185714Y-95507200D02*
X96042857Y-95554819D01*
X96042857Y-95554819D02*
X95947619Y-95554819D01*
X95947619Y-95554819D02*
X95804762Y-95507200D01*
X95804762Y-95507200D02*
X95709524Y-95411961D01*
X95709524Y-95411961D02*
X95661905Y-95316723D01*
X95661905Y-95316723D02*
X95614286Y-95126247D01*
X95614286Y-95126247D02*
X95614286Y-94983390D01*
X95614286Y-94983390D02*
X95661905Y-94792914D01*
X95661905Y-94792914D02*
X95709524Y-94697676D01*
X95709524Y-94697676D02*
X95804762Y-94602438D01*
X95804762Y-94602438D02*
X95947619Y-94554819D01*
X95947619Y-94554819D02*
X96042857Y-94554819D01*
X96042857Y-94554819D02*
X96185714Y-94602438D01*
X96185714Y-94602438D02*
X96233333Y-94650057D01*
X97090476Y-94888152D02*
X97090476Y-95554819D01*
X96852381Y-94507200D02*
X96614286Y-95221485D01*
X96614286Y-95221485D02*
X97233333Y-95221485D01*
X146433333Y-92384819D02*
X146100000Y-91908628D01*
X145861905Y-92384819D02*
X145861905Y-91384819D01*
X145861905Y-91384819D02*
X146242857Y-91384819D01*
X146242857Y-91384819D02*
X146338095Y-91432438D01*
X146338095Y-91432438D02*
X146385714Y-91480057D01*
X146385714Y-91480057D02*
X146433333Y-91575295D01*
X146433333Y-91575295D02*
X146433333Y-91718152D01*
X146433333Y-91718152D02*
X146385714Y-91813390D01*
X146385714Y-91813390D02*
X146338095Y-91861009D01*
X146338095Y-91861009D02*
X146242857Y-91908628D01*
X146242857Y-91908628D02*
X145861905Y-91908628D01*
X146909524Y-92384819D02*
X147100000Y-92384819D01*
X147100000Y-92384819D02*
X147195238Y-92337200D01*
X147195238Y-92337200D02*
X147242857Y-92289580D01*
X147242857Y-92289580D02*
X147338095Y-92146723D01*
X147338095Y-92146723D02*
X147385714Y-91956247D01*
X147385714Y-91956247D02*
X147385714Y-91575295D01*
X147385714Y-91575295D02*
X147338095Y-91480057D01*
X147338095Y-91480057D02*
X147290476Y-91432438D01*
X147290476Y-91432438D02*
X147195238Y-91384819D01*
X147195238Y-91384819D02*
X147004762Y-91384819D01*
X147004762Y-91384819D02*
X146909524Y-91432438D01*
X146909524Y-91432438D02*
X146861905Y-91480057D01*
X146861905Y-91480057D02*
X146814286Y-91575295D01*
X146814286Y-91575295D02*
X146814286Y-91813390D01*
X146814286Y-91813390D02*
X146861905Y-91908628D01*
X146861905Y-91908628D02*
X146909524Y-91956247D01*
X146909524Y-91956247D02*
X147004762Y-92003866D01*
X147004762Y-92003866D02*
X147195238Y-92003866D01*
X147195238Y-92003866D02*
X147290476Y-91956247D01*
X147290476Y-91956247D02*
X147338095Y-91908628D01*
X147338095Y-91908628D02*
X147385714Y-91813390D01*
X141216667Y-113507200D02*
X141359524Y-113554819D01*
X141359524Y-113554819D02*
X141597619Y-113554819D01*
X141597619Y-113554819D02*
X141692857Y-113507200D01*
X141692857Y-113507200D02*
X141740476Y-113459580D01*
X141740476Y-113459580D02*
X141788095Y-113364342D01*
X141788095Y-113364342D02*
X141788095Y-113269104D01*
X141788095Y-113269104D02*
X141740476Y-113173866D01*
X141740476Y-113173866D02*
X141692857Y-113126247D01*
X141692857Y-113126247D02*
X141597619Y-113078628D01*
X141597619Y-113078628D02*
X141407143Y-113031009D01*
X141407143Y-113031009D02*
X141311905Y-112983390D01*
X141311905Y-112983390D02*
X141264286Y-112935771D01*
X141264286Y-112935771D02*
X141216667Y-112840533D01*
X141216667Y-112840533D02*
X141216667Y-112745295D01*
X141216667Y-112745295D02*
X141264286Y-112650057D01*
X141264286Y-112650057D02*
X141311905Y-112602438D01*
X141311905Y-112602438D02*
X141407143Y-112554819D01*
X141407143Y-112554819D02*
X141645238Y-112554819D01*
X141645238Y-112554819D02*
X141788095Y-112602438D01*
X142121429Y-112554819D02*
X142359524Y-113554819D01*
X142359524Y-113554819D02*
X142550000Y-112840533D01*
X142550000Y-112840533D02*
X142740476Y-113554819D01*
X142740476Y-113554819D02*
X142978572Y-112554819D01*
X143835714Y-112554819D02*
X143359524Y-112554819D01*
X143359524Y-112554819D02*
X143311905Y-113031009D01*
X143311905Y-113031009D02*
X143359524Y-112983390D01*
X143359524Y-112983390D02*
X143454762Y-112935771D01*
X143454762Y-112935771D02*
X143692857Y-112935771D01*
X143692857Y-112935771D02*
X143788095Y-112983390D01*
X143788095Y-112983390D02*
X143835714Y-113031009D01*
X143835714Y-113031009D02*
X143883333Y-113126247D01*
X143883333Y-113126247D02*
X143883333Y-113364342D01*
X143883333Y-113364342D02*
X143835714Y-113459580D01*
X143835714Y-113459580D02*
X143788095Y-113507200D01*
X143788095Y-113507200D02*
X143692857Y-113554819D01*
X143692857Y-113554819D02*
X143454762Y-113554819D01*
X143454762Y-113554819D02*
X143359524Y-113507200D01*
X143359524Y-113507200D02*
X143311905Y-113459580D01*
X129477142Y-103579580D02*
X129429523Y-103627200D01*
X129429523Y-103627200D02*
X129286666Y-103674819D01*
X129286666Y-103674819D02*
X129191428Y-103674819D01*
X129191428Y-103674819D02*
X129048571Y-103627200D01*
X129048571Y-103627200D02*
X128953333Y-103531961D01*
X128953333Y-103531961D02*
X128905714Y-103436723D01*
X128905714Y-103436723D02*
X128858095Y-103246247D01*
X128858095Y-103246247D02*
X128858095Y-103103390D01*
X128858095Y-103103390D02*
X128905714Y-102912914D01*
X128905714Y-102912914D02*
X128953333Y-102817676D01*
X128953333Y-102817676D02*
X129048571Y-102722438D01*
X129048571Y-102722438D02*
X129191428Y-102674819D01*
X129191428Y-102674819D02*
X129286666Y-102674819D01*
X129286666Y-102674819D02*
X129429523Y-102722438D01*
X129429523Y-102722438D02*
X129477142Y-102770057D01*
X130429523Y-103674819D02*
X129858095Y-103674819D01*
X130143809Y-103674819D02*
X130143809Y-102674819D01*
X130143809Y-102674819D02*
X130048571Y-102817676D01*
X130048571Y-102817676D02*
X129953333Y-102912914D01*
X129953333Y-102912914D02*
X129858095Y-102960533D01*
X131048571Y-102674819D02*
X131143809Y-102674819D01*
X131143809Y-102674819D02*
X131239047Y-102722438D01*
X131239047Y-102722438D02*
X131286666Y-102770057D01*
X131286666Y-102770057D02*
X131334285Y-102865295D01*
X131334285Y-102865295D02*
X131381904Y-103055771D01*
X131381904Y-103055771D02*
X131381904Y-103293866D01*
X131381904Y-103293866D02*
X131334285Y-103484342D01*
X131334285Y-103484342D02*
X131286666Y-103579580D01*
X131286666Y-103579580D02*
X131239047Y-103627200D01*
X131239047Y-103627200D02*
X131143809Y-103674819D01*
X131143809Y-103674819D02*
X131048571Y-103674819D01*
X131048571Y-103674819D02*
X130953333Y-103627200D01*
X130953333Y-103627200D02*
X130905714Y-103579580D01*
X130905714Y-103579580D02*
X130858095Y-103484342D01*
X130858095Y-103484342D02*
X130810476Y-103293866D01*
X130810476Y-103293866D02*
X130810476Y-103055771D01*
X130810476Y-103055771D02*
X130858095Y-102865295D01*
X130858095Y-102865295D02*
X130905714Y-102770057D01*
X130905714Y-102770057D02*
X130953333Y-102722438D01*
X130953333Y-102722438D02*
X131048571Y-102674819D01*
X103824819Y-81261904D02*
X104634342Y-81261904D01*
X104634342Y-81261904D02*
X104729580Y-81214285D01*
X104729580Y-81214285D02*
X104777200Y-81166666D01*
X104777200Y-81166666D02*
X104824819Y-81071428D01*
X104824819Y-81071428D02*
X104824819Y-80880952D01*
X104824819Y-80880952D02*
X104777200Y-80785714D01*
X104777200Y-80785714D02*
X104729580Y-80738095D01*
X104729580Y-80738095D02*
X104634342Y-80690476D01*
X104634342Y-80690476D02*
X103824819Y-80690476D01*
X103824819Y-79785714D02*
X103824819Y-79976190D01*
X103824819Y-79976190D02*
X103872438Y-80071428D01*
X103872438Y-80071428D02*
X103920057Y-80119047D01*
X103920057Y-80119047D02*
X104062914Y-80214285D01*
X104062914Y-80214285D02*
X104253390Y-80261904D01*
X104253390Y-80261904D02*
X104634342Y-80261904D01*
X104634342Y-80261904D02*
X104729580Y-80214285D01*
X104729580Y-80214285D02*
X104777200Y-80166666D01*
X104777200Y-80166666D02*
X104824819Y-80071428D01*
X104824819Y-80071428D02*
X104824819Y-79880952D01*
X104824819Y-79880952D02*
X104777200Y-79785714D01*
X104777200Y-79785714D02*
X104729580Y-79738095D01*
X104729580Y-79738095D02*
X104634342Y-79690476D01*
X104634342Y-79690476D02*
X104396247Y-79690476D01*
X104396247Y-79690476D02*
X104301009Y-79738095D01*
X104301009Y-79738095D02*
X104253390Y-79785714D01*
X104253390Y-79785714D02*
X104205771Y-79880952D01*
X104205771Y-79880952D02*
X104205771Y-80071428D01*
X104205771Y-80071428D02*
X104253390Y-80166666D01*
X104253390Y-80166666D02*
X104301009Y-80214285D01*
X104301009Y-80214285D02*
X104396247Y-80261904D01*
X90283333Y-101639580D02*
X90235714Y-101687200D01*
X90235714Y-101687200D02*
X90092857Y-101734819D01*
X90092857Y-101734819D02*
X89997619Y-101734819D01*
X89997619Y-101734819D02*
X89854762Y-101687200D01*
X89854762Y-101687200D02*
X89759524Y-101591961D01*
X89759524Y-101591961D02*
X89711905Y-101496723D01*
X89711905Y-101496723D02*
X89664286Y-101306247D01*
X89664286Y-101306247D02*
X89664286Y-101163390D01*
X89664286Y-101163390D02*
X89711905Y-100972914D01*
X89711905Y-100972914D02*
X89759524Y-100877676D01*
X89759524Y-100877676D02*
X89854762Y-100782438D01*
X89854762Y-100782438D02*
X89997619Y-100734819D01*
X89997619Y-100734819D02*
X90092857Y-100734819D01*
X90092857Y-100734819D02*
X90235714Y-100782438D01*
X90235714Y-100782438D02*
X90283333Y-100830057D01*
X90616667Y-100734819D02*
X91235714Y-100734819D01*
X91235714Y-100734819D02*
X90902381Y-101115771D01*
X90902381Y-101115771D02*
X91045238Y-101115771D01*
X91045238Y-101115771D02*
X91140476Y-101163390D01*
X91140476Y-101163390D02*
X91188095Y-101211009D01*
X91188095Y-101211009D02*
X91235714Y-101306247D01*
X91235714Y-101306247D02*
X91235714Y-101544342D01*
X91235714Y-101544342D02*
X91188095Y-101639580D01*
X91188095Y-101639580D02*
X91140476Y-101687200D01*
X91140476Y-101687200D02*
X91045238Y-101734819D01*
X91045238Y-101734819D02*
X90759524Y-101734819D01*
X90759524Y-101734819D02*
X90664286Y-101687200D01*
X90664286Y-101687200D02*
X90616667Y-101639580D01*
D12*
%TO.C,U9*%
X93575000Y-86045000D02*
X90125000Y-86045000D01*
X93575000Y-86045000D02*
X95525000Y-86045000D01*
X93575000Y-91165000D02*
X91625000Y-91165000D01*
X93575000Y-91165000D02*
X95525000Y-91165000D01*
%TO.C,SW7*%
X109025000Y-97650000D02*
X109025000Y-99150000D01*
X110275000Y-101650000D02*
X114775000Y-101650000D01*
X114775000Y-95150000D02*
X110275000Y-95150000D01*
X116025000Y-99150000D02*
X116025000Y-97650000D01*
%TO.C,C12*%
X99838748Y-113365000D02*
X100361252Y-113365000D01*
X99838748Y-114835000D02*
X100361252Y-114835000D01*
%TO.C,C6*%
X99735000Y-87588748D02*
X99735000Y-88111252D01*
X98265000Y-87588748D02*
X98265000Y-88111252D01*
%TO.C,R1*%
X150737258Y-102022500D02*
X150262742Y-102022500D01*
X150737258Y-100977500D02*
X150262742Y-100977500D01*
%TO.C,R3*%
X151512258Y-120722500D02*
X151037742Y-120722500D01*
X151512258Y-119677500D02*
X151037742Y-119677500D01*
%TO.C,U1*%
X134090000Y-98190000D02*
X134090000Y-98490000D01*
X134090000Y-98490000D02*
X132775000Y-98490000D01*
X134090000Y-105410000D02*
X134090000Y-105110000D01*
X134390000Y-98190000D02*
X134090000Y-98190000D01*
X134390000Y-105410000D02*
X134090000Y-105410000D01*
X141010000Y-98190000D02*
X141310000Y-98190000D01*
X141010000Y-105410000D02*
X141310000Y-105410000D01*
X141310000Y-98190000D02*
X141310000Y-98490000D01*
X141310000Y-105410000D02*
X141310000Y-105110000D01*
%TO.C,U11*%
X115900000Y-81430000D02*
X115900000Y-80100000D01*
X117230000Y-81430000D02*
X115900000Y-81430000D01*
X118500000Y-81430000D02*
X126180000Y-81430000D01*
X118500000Y-81430000D02*
X118500000Y-78770000D01*
X126180000Y-81430000D02*
X126180000Y-78770000D01*
X118500000Y-78770000D02*
X126180000Y-78770000D01*
%TO.C,C11*%
X87865000Y-80011252D02*
X87865000Y-79488748D01*
X89335000Y-80011252D02*
X89335000Y-79488748D01*
%TO.C,C1*%
X119461252Y-111835000D02*
X118938748Y-111835000D01*
X119461252Y-110365000D02*
X118938748Y-110365000D01*
%TO.C,U3*%
X130470000Y-88930000D02*
X130470000Y-87600000D01*
X131800000Y-88930000D02*
X130470000Y-88930000D01*
X133070000Y-88930000D02*
X140750000Y-88930000D01*
X133070000Y-88930000D02*
X133070000Y-86270000D01*
X140750000Y-88930000D02*
X140750000Y-86270000D01*
X133070000Y-86270000D02*
X140750000Y-86270000D01*
%TO.C,SW8*%
X108900000Y-89350000D02*
X108900000Y-90850000D01*
X110150000Y-93350000D02*
X114650000Y-93350000D01*
X114650000Y-86850000D02*
X110150000Y-86850000D01*
X115900000Y-90850000D02*
X115900000Y-89350000D01*
%TO.C,SW2*%
X154300000Y-98050000D02*
X154300000Y-99550000D01*
X155550000Y-102050000D02*
X160050000Y-102050000D01*
X160050000Y-95550000D02*
X155550000Y-95550000D01*
X161300000Y-99550000D02*
X161300000Y-98050000D01*
%TO.C,U2*%
X127765000Y-109410000D02*
X127765000Y-109235000D01*
X128440000Y-106190000D02*
X127765000Y-106190000D01*
X128440000Y-109410000D02*
X127765000Y-109410000D01*
X130310000Y-106190000D02*
X130985000Y-106190000D01*
X130310000Y-109410000D02*
X130985000Y-109410000D01*
X130985000Y-106190000D02*
X130985000Y-106365000D01*
X130985000Y-109410000D02*
X130985000Y-109235000D01*
%TO.C,U4*%
X167070000Y-82990000D02*
X168400000Y-82990000D01*
X167070000Y-84320000D02*
X167070000Y-82990000D01*
X167070000Y-85590000D02*
X167070000Y-93270000D01*
X167070000Y-85590000D02*
X169730000Y-85590000D01*
X167070000Y-93270000D02*
X169730000Y-93270000D01*
X169730000Y-85590000D02*
X169730000Y-93270000D01*
%TO.C,C5*%
X88535000Y-87638748D02*
X88535000Y-88161252D01*
X87065000Y-87638748D02*
X87065000Y-88161252D01*
%TO.C,SW4*%
X154350000Y-116600000D02*
X154350000Y-118100000D01*
X155600000Y-120600000D02*
X160100000Y-120600000D01*
X160100000Y-114100000D02*
X155600000Y-114100000D01*
X161350000Y-118100000D02*
X161350000Y-116600000D01*
%TO.C,U13*%
X92800000Y-116810000D02*
X96400000Y-116810000D01*
X92800000Y-116810000D02*
X90600000Y-116810000D01*
X92800000Y-111590000D02*
X95000000Y-111590000D01*
X92800000Y-111590000D02*
X90600000Y-111590000D01*
%TO.C,R2*%
X150912258Y-110622500D02*
X150437742Y-110622500D01*
X150912258Y-109577500D02*
X150437742Y-109577500D01*
%TO.C,U7*%
X81630000Y-101170000D02*
X81630000Y-102500000D01*
X80300000Y-101170000D02*
X81630000Y-101170000D01*
X79030000Y-101170000D02*
X76430000Y-101170000D01*
X79030000Y-101170000D02*
X79030000Y-103830000D01*
X76430000Y-101170000D02*
X76430000Y-103830000D01*
X79030000Y-103830000D02*
X76430000Y-103830000D01*
%TO.C,R7*%
X118662742Y-100377500D02*
X119137258Y-100377500D01*
X118662742Y-101422500D02*
X119137258Y-101422500D01*
%TO.C,C2*%
X126101252Y-107535000D02*
X125578748Y-107535000D01*
X126101252Y-106065000D02*
X125578748Y-106065000D01*
%TO.C,J1*%
X77710000Y-111100000D02*
X80940000Y-111100000D01*
X73540000Y-111100000D02*
X75490000Y-111100000D01*
X82860000Y-111820000D02*
X82860000Y-112900000D01*
X82860000Y-112900000D02*
X83290000Y-112900000D01*
X82860000Y-117120000D02*
X82860000Y-118200000D01*
X77710000Y-118920000D02*
X80940000Y-118920000D01*
X73540000Y-118920000D02*
X73540000Y-111100000D01*
X73540000Y-118920000D02*
X75490000Y-118920000D01*
%TO.C,U12*%
X77005000Y-86875000D02*
X78335000Y-86875000D01*
X77005000Y-88205000D02*
X77005000Y-86875000D01*
X77005000Y-89475000D02*
X77005000Y-99695000D01*
X77005000Y-89475000D02*
X79665000Y-89475000D01*
X77005000Y-99695000D02*
X79665000Y-99695000D01*
X79665000Y-89475000D02*
X79665000Y-99695000D01*
%TO.C,C9*%
X128188748Y-98525000D02*
X128711252Y-98525000D01*
X128188748Y-99995000D02*
X128711252Y-99995000D01*
%TO.C,SW6*%
X126150000Y-116600000D02*
X126150000Y-118100000D01*
X127400000Y-120600000D02*
X131900000Y-120600000D01*
X131900000Y-114100000D02*
X127400000Y-114100000D01*
X133150000Y-118100000D02*
X133150000Y-116600000D01*
%TO.C,R10*%
X146862258Y-88062500D02*
X146387742Y-88062500D01*
X146862258Y-87017500D02*
X146387742Y-87017500D01*
%TO.C,Y1*%
X131425000Y-94975000D02*
X130075000Y-94975000D01*
X131425000Y-93225000D02*
X130075000Y-93225000D01*
%TO.C,SW3*%
X154250000Y-107450000D02*
X154250000Y-108950000D01*
X155500000Y-111450000D02*
X160000000Y-111450000D01*
X160000000Y-104950000D02*
X155500000Y-104950000D01*
X161250000Y-108950000D02*
X161250000Y-107450000D01*
%TO.C,U5*%
X166470000Y-103730000D02*
X167800000Y-103730000D01*
X166470000Y-105060000D02*
X166470000Y-103730000D01*
X166470000Y-106330000D02*
X166470000Y-111470000D01*
X166470000Y-106330000D02*
X169130000Y-106330000D01*
X166470000Y-111470000D02*
X169130000Y-111470000D01*
X169130000Y-106330000D02*
X169130000Y-111470000D01*
%TO.C,SW9*%
X77910000Y-80070000D02*
X77910000Y-81570000D01*
X79160000Y-84070000D02*
X83660000Y-84070000D01*
X83660000Y-77570000D02*
X79160000Y-77570000D01*
X84910000Y-81570000D02*
X84910000Y-80070000D01*
%TO.C,C8*%
X133361252Y-92335000D02*
X132838748Y-92335000D01*
X133361252Y-90865000D02*
X132838748Y-90865000D01*
%TO.C,U10*%
X153000000Y-79020000D02*
X130080000Y-79020000D01*
X153000000Y-79020000D02*
X153000000Y-81680000D01*
X130080000Y-79020000D02*
X130080000Y-81680000D01*
X155600000Y-80350000D02*
X155600000Y-81680000D01*
X155600000Y-81680000D02*
X154270000Y-81680000D01*
X153000000Y-81680000D02*
X130080000Y-81680000D01*
%TO.C,U8*%
X92700000Y-95340000D02*
X90900000Y-95340000D01*
X92700000Y-95340000D02*
X93500000Y-95340000D01*
X92700000Y-98460000D02*
X91900000Y-98460000D01*
X92700000Y-98460000D02*
X93500000Y-98460000D01*
%TO.C,R6*%
X124322500Y-119362742D02*
X124322500Y-119837258D01*
X123277500Y-119362742D02*
X123277500Y-119837258D01*
%TO.C,R5*%
X137322500Y-119387742D02*
X137322500Y-119862258D01*
X136277500Y-119387742D02*
X136277500Y-119862258D01*
%TO.C,R8*%
X120562742Y-92277500D02*
X121037258Y-92277500D01*
X120562742Y-93322500D02*
X121037258Y-93322500D01*
%TO.C,C7*%
X128138748Y-90865000D02*
X128661252Y-90865000D01*
X128138748Y-92335000D02*
X128661252Y-92335000D01*
%TO.C,SW1*%
X154000000Y-88350000D02*
X154000000Y-89850000D01*
X155250000Y-92350000D02*
X159750000Y-92350000D01*
X159750000Y-85850000D02*
X155250000Y-85850000D01*
X161000000Y-89850000D02*
X161000000Y-88350000D01*
%TO.C,R4*%
X150737258Y-92522500D02*
X150262742Y-92522500D01*
X150737258Y-91477500D02*
X150262742Y-91477500D01*
%TO.C,C4*%
X93361252Y-94335000D02*
X92838748Y-94335000D01*
X93361252Y-92865000D02*
X92838748Y-92865000D01*
%TO.C,R9*%
X146837258Y-91022500D02*
X146362742Y-91022500D01*
X146837258Y-89977500D02*
X146362742Y-89977500D01*
%TO.C,SW5*%
X139050000Y-116600000D02*
X139050000Y-118100000D01*
X140300000Y-120600000D02*
X144800000Y-120600000D01*
X144800000Y-114100000D02*
X140300000Y-114100000D01*
X146050000Y-118100000D02*
X146050000Y-116600000D01*
%TO.C,C10*%
X129858748Y-100595000D02*
X130381252Y-100595000D01*
X129858748Y-102065000D02*
X130381252Y-102065000D01*
%TO.C,U6*%
X105370000Y-81830000D02*
X105370000Y-80500000D01*
X106700000Y-81830000D02*
X105370000Y-81830000D01*
X107970000Y-81830000D02*
X110570000Y-81830000D01*
X107970000Y-81830000D02*
X107970000Y-79170000D01*
X110570000Y-81830000D02*
X110570000Y-79170000D01*
X107970000Y-79170000D02*
X110570000Y-79170000D01*
%TO.C,C3*%
X90711252Y-100335000D02*
X90188748Y-100335000D01*
X90711252Y-98865000D02*
X90188748Y-98865000D01*
%TD*%
D13*
X73570000Y-75080000D02*
X179650000Y-75080000D01*
X179650000Y-128060000D01*
X73570000Y-128060000D01*
X73570000Y-75080000D01*
M02*
