M48
; DRILL file {KiCad 7.0.9-7.0.9~ubuntu22.04.1} date Tue 26 Mar 2024 10:14:37 AM
; FORMAT={-:-/ absolute / inch / decimal}
; #@! TF.CreationDate,2024-03-26T10:14:37-06:00
; #@! TF.GenerationSoftware,Kicad,Pcbnew,7.0.9-7.0.9~ubuntu22.04.1
; #@! TF.FileFunction,Plated,1,4,PTH
FMAT,2
INCH
; #@! TA.AperFunction,Plated,PTH,ViaDrill
T1C0.0157
; #@! TA.AperFunction,Plated,PTH,ComponentDrill
T2C0.0394
; #@! TA.AperFunction,Plated,PTH,ComponentDrill
T3C0.0433
%
G90
G05
T1
X3.3941Y-4.4634
X3.4307Y-3.9209
X3.4382Y-4.4717
X3.4528Y-3.6358
X3.5138Y-3.8165
X3.5425Y-4.3689
X3.6575Y-3.3031
X3.7484Y-4.6732
X3.7665Y-4.3689
X3.8217Y-4.726
X3.8248Y-3.6988
X3.8953Y-3.5654
X3.9024Y-4.5697
X3.9146Y-4.4225
X3.939Y-3.6555
X4.0138Y-4.3051
X4.0378Y-4.4929
X4.0472Y-4.2636
X4.0827Y-3.8031
X4.1181Y-4.3228
X4.1732Y-3.7795
X4.3025Y-4.2574
X4.313Y-4.2953
X4.3268Y-4.1004
X4.3465Y-3.3228
X4.4094Y-3.9252
X4.5098Y-4.3543
X4.6102Y-4.4709
X4.6654Y-3.7047
X4.7008Y-4.3249
X4.7343Y-3.3248
X4.7717Y-4.2106
X4.7823Y-3.9705
X4.7949Y-3.585
X4.8701Y-3.8043
X4.8858Y-3.4154
X4.9672Y-4.0031
X4.9902Y-4.1469
X4.9961Y-4.3012
X5.0185Y-3.9878
X5.0516Y-3.7976
X5.0728Y-4.3701
X5.092Y-4.1214
X5.1157Y-4.3654
X5.1339Y-4.1063
X5.1601Y-4.1477
X5.1752Y-4.307
X5.187Y-4.3799
X5.2064Y-4.1795
X5.2392Y-4.312
X5.3445Y-3.5886
X5.4402Y-4.2251
X5.4528Y-4.4415
X5.4609Y-4.3502
X5.4794Y-4.2214
X5.502Y-3.752
X5.5551Y-4.3471
X5.5827Y-4.2482
X5.5945Y-4.3053
X5.6299Y-3.8361
X5.6575Y-4.2205
X5.6618Y-4.022
X5.6732Y-3.874
X5.7106Y-4.0315
X5.7382Y-3.8144
X5.748Y-3.9892
X5.7756Y-3.3602
X5.7795Y-3.7874
X5.7795Y-3.9252
X5.7835Y-4.0531
X5.8037Y-3.622
X5.8248Y-4.0098
X5.8677Y-4.7709
X5.874Y-3.5531
X5.8819Y-4.1845
X5.9291Y-4.0866
X5.9823Y-3.3425
X6.4685Y-4.4449
X6.5079Y-4.7835
X6.7008Y-3.8898
X6.7638Y-4.0689
X6.8684Y-3.0627
T2
X3.0614Y-4.0354
X3.0841Y-3.4726
X3.0841Y-3.5726
X3.0841Y-3.6726
X3.0841Y-3.7726
X3.0841Y-3.8726
X3.1614Y-4.0354
X4.2008Y-3.1693
X4.3008Y-3.1693
X4.6154Y-3.1535
X4.7154Y-3.1535
X4.8154Y-3.1535
X4.9154Y-3.1535
X5.1736Y-3.1634
X5.189Y-3.4488
X5.2736Y-3.1634
X5.289Y-3.4488
X5.3736Y-3.1634
X5.389Y-3.4488
X5.4736Y-3.1634
X5.489Y-3.4488
X5.5736Y-3.1634
X5.6736Y-3.1634
X5.7736Y-3.1634
X5.8736Y-3.1634
X5.9736Y-3.1634
X6.0736Y-3.1634
X6.6063Y-4.1362
X6.6063Y-4.2362
X6.6063Y-4.3362
X6.6299Y-3.3197
X6.6299Y-3.4197
X6.6299Y-3.5197
X6.6299Y-3.6197
T3
X3.0772Y-3.0933
X3.0772Y-3.2705
X3.3331Y-3.0933
X3.3331Y-3.2705
X4.2972Y-3.4587
X4.2972Y-3.6358
X4.3022Y-3.7854
X4.3022Y-3.9626
X4.5531Y-3.4587
X4.5531Y-3.6358
X4.5581Y-3.7854
X4.5581Y-3.9626
X4.9764Y-4.5315
X4.9764Y-4.7087
X5.2323Y-4.5315
X5.2323Y-4.7087
X5.4843Y-4.5315
X5.4843Y-4.7087
X5.7402Y-4.5315
X5.7402Y-4.7087
X6.0728Y-3.4193
X6.0728Y-3.5965
X6.0827Y-4.1713
X6.0827Y-4.3484
X6.0846Y-3.8012
X6.0846Y-3.9783
X6.0866Y-4.5315
X6.0866Y-4.7087
X6.3287Y-3.4193
X6.3287Y-3.5965
X6.3386Y-4.1713
X6.3386Y-4.3484
X6.3406Y-3.8012
X6.3406Y-3.9783
X6.3425Y-4.5315
X6.3425Y-4.7087
T0
M30
