%TF.GenerationSoftware,KiCad,Pcbnew,7.0.9-7.0.9~ubuntu22.04.1*%
%TF.CreationDate,2024-03-26T10:14:33-06:00*%
%TF.ProjectId,StmBoard,53746d42-6f61-4726-942e-6b696361645f,rev?*%
%TF.SameCoordinates,Original*%
%TF.FileFunction,Copper,L4,Bot*%
%TF.FilePolarity,Positive*%
%FSLAX46Y46*%
G04 Gerber Fmt 4.6, Leading zero omitted, Abs format (unit mm)*
G04 Created by KiCad (PCBNEW 7.0.9-7.0.9~ubuntu22.04.1) date 2024-03-26 10:14:33*
%MOMM*%
%LPD*%
G01*
G04 APERTURE LIST*
%TA.AperFunction,ComponentPad*%
%ADD10C,2.000000*%
%TD*%
%TA.AperFunction,ComponentPad*%
%ADD11R,1.700000X1.700000*%
%TD*%
%TA.AperFunction,ComponentPad*%
%ADD12O,1.700000X1.700000*%
%TD*%
%TA.AperFunction,ViaPad*%
%ADD13C,0.800000*%
%TD*%
%TA.AperFunction,Conductor*%
%ADD14C,0.250000*%
%TD*%
%TA.AperFunction,Conductor*%
%ADD15C,0.304800*%
%TD*%
%TA.AperFunction,Profile*%
%ADD16C,0.100000*%
%TD*%
G04 APERTURE END LIST*
D10*
%TO.P,SW7,1*%
%TO.N,+3.3V*%
X109275000Y-96150000D03*
X115775000Y-96150000D03*
%TO.P,SW7,2*%
%TO.N,/A6*%
X109275000Y-100650000D03*
X115775000Y-100650000D03*
%TD*%
D11*
%TO.P,U11,1,gnd*%
%TO.N,GND*%
X117230000Y-80100000D03*
D12*
%TO.P,U11,2,gnd*%
X119770000Y-80100000D03*
%TO.P,U11,3,5v*%
%TO.N,VCC*%
X122310000Y-80100000D03*
%TO.P,U11,4,3.3v*%
%TO.N,+3.3V*%
X124850000Y-80100000D03*
%TD*%
D11*
%TO.P,U3,1,GND*%
%TO.N,GND*%
X131800000Y-87600000D03*
D12*
%TO.P,U3,2,VCC*%
%TO.N,+3.3V*%
X134340000Y-87600000D03*
%TO.P,U3,3,SCL*%
%TO.N,/SCL*%
X136880000Y-87600000D03*
%TO.P,U3,4,SDA*%
%TO.N,/SDA*%
X139420000Y-87600000D03*
%TD*%
D10*
%TO.P,SW8,1*%
%TO.N,+3.3V*%
X109150000Y-87850000D03*
X115650000Y-87850000D03*
%TO.P,SW8,2*%
%TO.N,/A7*%
X109150000Y-92350000D03*
X115650000Y-92350000D03*
%TD*%
%TO.P,SW2,1*%
%TO.N,+3.3V*%
X154550000Y-96550000D03*
X161050000Y-96550000D03*
%TO.P,SW2,2*%
%TO.N,/A1*%
X154550000Y-101050000D03*
X161050000Y-101050000D03*
%TD*%
D11*
%TO.P,U4,1,GND*%
%TO.N,GND*%
X168400000Y-84320000D03*
D12*
%TO.P,U4,2,VCC*%
%TO.N,+3.3V*%
X168400000Y-86860000D03*
%TO.P,U4,3,SCL*%
%TO.N,/SCL*%
X168400000Y-89400000D03*
%TO.P,U4,4,SDA*%
%TO.N,/SDA*%
X168400000Y-91940000D03*
%TD*%
D10*
%TO.P,SW4,1*%
%TO.N,+3.3V*%
X154600000Y-115100000D03*
X161100000Y-115100000D03*
%TO.P,SW4,2*%
%TO.N,/A3*%
X154600000Y-119600000D03*
X161100000Y-119600000D03*
%TD*%
D11*
%TO.P,U7,1,VCC*%
%TO.N,Net-(J1-VBUS)*%
X80300000Y-102500000D03*
D12*
%TO.P,U7,2,GDN*%
%TO.N,GND*%
X77760000Y-102500000D03*
%TD*%
D11*
%TO.P,U12,1,GND*%
%TO.N,GND*%
X78335000Y-88205000D03*
D12*
%TO.P,U12,2,VCC*%
%TO.N,VCC*%
X78335000Y-90745000D03*
%TO.P,U12,3,Reset*%
%TO.N,/reset*%
X78335000Y-93285000D03*
%TO.P,U12,4,SWCLK*%
%TO.N,SWCLK*%
X78335000Y-95825000D03*
%TO.P,U12,5,SWDIO*%
%TO.N,SWDIO*%
X78335000Y-98365000D03*
%TD*%
D10*
%TO.P,SW6,1*%
%TO.N,+3.3V*%
X126400000Y-115100000D03*
X132900000Y-115100000D03*
%TO.P,SW6,2*%
%TO.N,/A5*%
X126400000Y-119600000D03*
X132900000Y-119600000D03*
%TD*%
%TO.P,SW3,1*%
%TO.N,+3.3V*%
X154500000Y-105950000D03*
X161000000Y-105950000D03*
%TO.P,SW3,2*%
%TO.N,/A2*%
X154500000Y-110450000D03*
X161000000Y-110450000D03*
%TD*%
D11*
%TO.P,U5,1,ADC1*%
%TO.N,Net-(U2-ADC1)*%
X167800000Y-105060000D03*
D12*
%TO.P,U5,2,ADC2*%
%TO.N,Net-(U2-ADC2)*%
X167800000Y-107600000D03*
%TO.P,U5,3,ADC3*%
%TO.N,Net-(U2-ADC3)*%
X167800000Y-110140000D03*
%TD*%
D10*
%TO.P,SW9,1*%
%TO.N,/reset*%
X78160000Y-78570000D03*
X84660000Y-78570000D03*
%TO.P,SW9,2*%
%TO.N,GND*%
X78160000Y-83070000D03*
X84660000Y-83070000D03*
%TD*%
D11*
%TO.P,U10,1,PB_1*%
%TO.N,Net-(U1-PB1)*%
X154270000Y-80350000D03*
D12*
%TO.P,U10,2,PB_2*%
%TO.N,Net-(U1-PB2)*%
X151730000Y-80350000D03*
%TO.P,U10,3,PB_3*%
%TO.N,Net-(U1-PB3)*%
X149190000Y-80350000D03*
%TO.P,U10,4,PB_4*%
%TO.N,Net-(U1-PB4)*%
X146650000Y-80350000D03*
%TO.P,U10,5,PB_5*%
%TO.N,Net-(U1-PB5)*%
X144110000Y-80350000D03*
%TO.P,U10,6,PB_6*%
%TO.N,Net-(U1-PB6)*%
X141570000Y-80350000D03*
%TO.P,U10,7,PB_7*%
%TO.N,Net-(U1-PB7)*%
X139030000Y-80350000D03*
%TO.P,U10,8,PB_8*%
%TO.N,Net-(U1-PB8)*%
X136490000Y-80350000D03*
%TO.P,U10,9,PB_9*%
%TO.N,Net-(U1-PB9)*%
X133950000Y-80350000D03*
%TO.P,U10,10,PB_0*%
%TO.N,Net-(U1-PB0)*%
X131410000Y-80350000D03*
%TD*%
D10*
%TO.P,SW1,1*%
%TO.N,+3.3V*%
X154250000Y-86850000D03*
X160750000Y-86850000D03*
%TO.P,SW1,2*%
%TO.N,/A0*%
X154250000Y-91350000D03*
X160750000Y-91350000D03*
%TD*%
%TO.P,SW5,1*%
%TO.N,+3.3V*%
X139300000Y-115100000D03*
X145800000Y-115100000D03*
%TO.P,SW5,2*%
%TO.N,/A4*%
X139300000Y-119600000D03*
X145800000Y-119600000D03*
%TD*%
D11*
%TO.P,U6,1,Rx*%
%TO.N,/RX_UASART2_VCOM*%
X106700000Y-80500000D03*
D12*
%TO.P,U6,2,Tx*%
%TO.N,/TX_UASART2_VCOM*%
X109240000Y-80500000D03*
%TD*%
D13*
%TO.N,GND*%
X149040000Y-121180000D03*
%TO.N,+3.3V*%
X129940000Y-110880000D03*
%TO.N,GND*%
X121470000Y-100850000D03*
%TO.N,Net-(J1-VBUS)*%
X86210000Y-113370000D03*
%TO.N,GND*%
X98940000Y-90560000D03*
%TO.N,+3.3V*%
X99120000Y-116070000D03*
%TO.N,GND*%
X89250000Y-96940000D03*
X87140000Y-99590000D03*
X102560000Y-114120000D03*
X89980000Y-110970000D03*
%TO.N,+3.3V*%
X87330000Y-113580000D03*
X95210000Y-118700000D03*
%TO.N,GND*%
X97070000Y-120040000D03*
%TO.N,+3.3V*%
X128310000Y-96460000D03*
%TO.N,GND*%
X127470000Y-101290000D03*
X121790000Y-91060000D03*
%TO.N,+3.3V*%
X126750000Y-105330000D03*
X97150000Y-93950000D03*
X149200000Y-90250000D03*
X119400000Y-109851900D03*
%TO.N,GND*%
X114550000Y-110600000D03*
X131750000Y-111250000D03*
X147950000Y-101850000D03*
X128850000Y-111000000D03*
X147414055Y-92000000D03*
X95670000Y-110970000D03*
X126900000Y-109250000D03*
X121200000Y-106950000D03*
X143810000Y-102160000D03*
%TO.N,VCC*%
X87700000Y-92350000D03*
X92900000Y-83900000D03*
X100050000Y-92850000D03*
%TO.N,/reset*%
X110400000Y-84400000D03*
X118500000Y-94100000D03*
%TO.N,/A1*%
X150600000Y-103800000D03*
X130400000Y-104300000D03*
%TO.N,/A3*%
X141800000Y-107905200D03*
X142100000Y-109354700D03*
%TO.N,/A0*%
X109900000Y-104150000D03*
%TO.N,/A4*%
X146800000Y-99700000D03*
%TO.N,/A5*%
X170200000Y-98800000D03*
X165300000Y-121500000D03*
%TO.N,/A6*%
X138181674Y-107318326D03*
X138705767Y-110494233D03*
X117100000Y-113561500D03*
%TO.N,/A7*%
X164300000Y-112900000D03*
X112000000Y-99700000D03*
X143700000Y-107200000D03*
X139176612Y-107222911D03*
%TO.N,/SDA*%
X109550000Y-109100000D03*
X120250000Y-84450000D03*
X146800000Y-96200000D03*
X135750000Y-91150000D03*
X101950000Y-109350000D03*
X146000000Y-101324500D03*
%TO.N,/SCL*%
X109282489Y-108136962D03*
X102800000Y-108295700D03*
X145050000Y-102400000D03*
X146700000Y-85350000D03*
X145750112Y-96886539D03*
X124100000Y-86750000D03*
%TO.N,/TX_UASART2_VCOM*%
X104600000Y-109800000D03*
X106000000Y-96000000D03*
X99431674Y-112331674D03*
%TO.N,/RX_UASART2_VCOM*%
X103700000Y-96600000D03*
%TO.N,Net-(U1-PB0)*%
X149400000Y-106286100D03*
X151950000Y-84900000D03*
X171800000Y-103350000D03*
%TO.N,Net-(U1-PB1)*%
X174456674Y-77793326D03*
%TO.N,Net-(U1-PA8)*%
X133075352Y-109525355D03*
X146900000Y-102950000D03*
%TO.N,SWDIO*%
X144100000Y-98400000D03*
%TO.N,SWCLK*%
X143000000Y-97437900D03*
%TO.N,Net-(U1-PA15)*%
X131450000Y-109398100D03*
X123700000Y-96630000D03*
X139750000Y-95300000D03*
X126168028Y-101678028D03*
%TO.N,Net-(U2-ADC3)*%
X132243368Y-106158532D03*
%TO.N,Net-(U2-ADC2)*%
X131066505Y-105351900D03*
%TO.N,Net-(U2-ADC1)*%
X138500000Y-112814700D03*
X129337087Y-104682679D03*
X141100000Y-110415500D03*
%TD*%
D14*
%TO.N,/A3*%
X142100000Y-109354700D02*
X142100000Y-108205200D01*
X142100000Y-108205200D02*
X141800000Y-107905200D01*
%TO.N,/A7*%
X139176612Y-107222911D02*
X143677089Y-107222911D01*
X143677089Y-107222911D02*
X143700000Y-107200000D01*
%TO.N,Net-(J1-VBUS)*%
X86210000Y-113370000D02*
X80300000Y-107460000D01*
X80300000Y-107460000D02*
X80300000Y-102500000D01*
D15*
%TO.N,VCC*%
X99780000Y-83900000D02*
X100150000Y-83900000D01*
X99780000Y-83900000D02*
X100895200Y-83900000D01*
X92900000Y-83900000D02*
X99780000Y-83900000D01*
X100522600Y-84272600D02*
X101122600Y-83672600D01*
X101122600Y-83672600D02*
X105897600Y-78897600D01*
X100895200Y-83900000D02*
X101122600Y-83672600D01*
%TO.N,Net-(U1-PB0)*%
X149400000Y-106286100D02*
X149463900Y-106286100D01*
X152450000Y-103300000D02*
X171750000Y-103300000D01*
X149463900Y-106286100D02*
X152450000Y-103300000D01*
X171750000Y-103300000D02*
X171800000Y-103350000D01*
%TO.N,VCC*%
X81800000Y-90700000D02*
X87200000Y-90700000D01*
X77600000Y-90700000D02*
X81800000Y-90700000D01*
X81800000Y-90700000D02*
X81755000Y-90745000D01*
X81755000Y-90745000D02*
X78335000Y-90745000D01*
%TO.N,SWCLK*%
X80195000Y-97685000D02*
X143000000Y-97685000D01*
X80195000Y-97685000D02*
X78335000Y-95825000D01*
%TO.N,SWDIO*%
X81410000Y-98320000D02*
X144020000Y-98320000D01*
X81410000Y-98320000D02*
X81365000Y-98365000D01*
X81365000Y-98365000D02*
X78335000Y-98365000D01*
X77600000Y-98320000D02*
X80620000Y-98320000D01*
%TO.N,Net-(U1-PA15)*%
X123700000Y-96630000D02*
X126970000Y-96630000D01*
X126970000Y-96630000D02*
X128300000Y-95300000D01*
X128300000Y-95300000D02*
X139750000Y-95300000D01*
X128350000Y-104759647D02*
X131450000Y-107859647D01*
X126168028Y-101678028D02*
X128350000Y-103860000D01*
X128350000Y-103860000D02*
X128350000Y-104759647D01*
X131450000Y-107859647D02*
X131450000Y-109398100D01*
%TO.N,Net-(U1-PB0)*%
X151950000Y-84900000D02*
X150995200Y-83945200D01*
X150995200Y-83945200D02*
X135005200Y-83945200D01*
X135005200Y-83945200D02*
X131410000Y-80350000D01*
%TO.N,VCC*%
X100050000Y-92850000D02*
X98650000Y-92850000D01*
X87700000Y-92350000D02*
X87700000Y-91200000D01*
X94095200Y-90700000D02*
X95297600Y-89497600D01*
X87700000Y-91200000D02*
X87200000Y-90700000D01*
X87200000Y-90700000D02*
X94095200Y-90700000D01*
X100150000Y-83900000D02*
X100522600Y-84272600D01*
X121107600Y-78897600D02*
X122310000Y-80100000D01*
X95297600Y-89497600D02*
X100522600Y-84272600D01*
X105897600Y-78897600D02*
X121107600Y-78897600D01*
X98650000Y-92850000D02*
X95297600Y-89497600D01*
%TO.N,/reset*%
X117500000Y-84400000D02*
X118500000Y-85400000D01*
X118500000Y-94100000D02*
X118500000Y-85400000D01*
X117500000Y-84400000D02*
X110400000Y-84400000D01*
%TO.N,/A1*%
X150600000Y-103800000D02*
X130900000Y-103800000D01*
X130900000Y-103800000D02*
X130400000Y-104300000D01*
%TO.N,/A0*%
X111495200Y-105745200D02*
X111495200Y-109734651D01*
X124110549Y-122350000D02*
X166400000Y-122350000D01*
X109900000Y-104150000D02*
X111495200Y-105745200D01*
X166400000Y-122350000D02*
X175050000Y-113700000D01*
X111495200Y-109734651D02*
X124110549Y-122350000D01*
X175050000Y-101222209D02*
X168177791Y-94350000D01*
X168177791Y-94350000D02*
X163750000Y-94350000D01*
X163750000Y-94350000D02*
X160750000Y-91350000D01*
X175050000Y-113700000D02*
X175050000Y-101222209D01*
%TO.N,/A4*%
X145800000Y-119600000D02*
X147152400Y-118247600D01*
X147152400Y-118247600D02*
X167352400Y-118247600D01*
X174000000Y-111600000D02*
X174000000Y-101600000D01*
X167352400Y-118247600D02*
X174000000Y-111600000D01*
X172097600Y-99697600D02*
X148202400Y-99697600D01*
X174000000Y-101600000D02*
X172200000Y-99800000D01*
X148200000Y-99700000D02*
X146800000Y-99700000D01*
X172200000Y-99800000D02*
X172097600Y-99697600D01*
X148202400Y-99697600D02*
X148200000Y-99700000D01*
%TO.N,/A5*%
X174504800Y-111995200D02*
X165300000Y-121200000D01*
X174504800Y-101390905D02*
X174504800Y-111995200D01*
X165300000Y-121200000D02*
X165300000Y-121500000D01*
X171913895Y-98800000D02*
X174504800Y-101390905D01*
X170200000Y-98800000D02*
X171913895Y-98800000D01*
%TO.N,/A6*%
X138181674Y-107318326D02*
X138800000Y-107936652D01*
X117100000Y-101975000D02*
X115775000Y-100650000D01*
X117100000Y-113561500D02*
X117100000Y-101975000D01*
X138800000Y-107936652D02*
X138800000Y-110400000D01*
X138800000Y-110400000D02*
X138705767Y-110494233D01*
%TO.N,/A7*%
X112000000Y-99700000D02*
X112000000Y-109525555D01*
X144500000Y-113000000D02*
X164200000Y-113000000D01*
X112000000Y-109525555D02*
X119774445Y-117300000D01*
X140200000Y-117300000D02*
X144500000Y-113000000D01*
X164200000Y-113000000D02*
X164300000Y-112900000D01*
X119774445Y-117300000D02*
X140200000Y-117300000D01*
%TO.N,/SDA*%
X120250000Y-84450000D02*
X136270000Y-84450000D01*
X146800000Y-96200000D02*
X142550000Y-91950000D01*
X135900000Y-91950000D02*
X135900000Y-91300000D01*
X146000000Y-101324500D02*
X146000000Y-97700000D01*
X108850000Y-109100000D02*
X109550000Y-109100000D01*
X146800000Y-96900000D02*
X146800000Y-96200000D01*
X108797600Y-109047600D02*
X108850000Y-109100000D01*
X146000000Y-97700000D02*
X146800000Y-96900000D01*
X135900000Y-91300000D02*
X135750000Y-91150000D01*
X142550000Y-91950000D02*
X135900000Y-91950000D01*
X101950000Y-109350000D02*
X102252400Y-109047600D01*
X102252400Y-109047600D02*
X108797600Y-109047600D01*
X136270000Y-84450000D02*
X139420000Y-87600000D01*
%TO.N,/SCL*%
X145050000Y-102400000D02*
X145050000Y-97850000D01*
X145750112Y-96950112D02*
X145750112Y-96886539D01*
X107904300Y-108295700D02*
X108000000Y-108200000D01*
X135677600Y-86397600D02*
X136880000Y-87600000D01*
X146700000Y-85350000D02*
X143247600Y-88802400D01*
X108000000Y-108200000D02*
X109219451Y-108200000D01*
X145050000Y-97850000D02*
X145850000Y-97050000D01*
X109219451Y-108200000D02*
X109282489Y-108136962D01*
X102800000Y-108295700D02*
X107904300Y-108295700D01*
X138082400Y-88802400D02*
X136880000Y-87600000D01*
X143247600Y-88802400D02*
X138082400Y-88802400D01*
X145850000Y-97050000D02*
X145750112Y-96950112D01*
X124100000Y-86750000D02*
X124452400Y-86397600D01*
X124452400Y-86397600D02*
X135677600Y-86397600D01*
%TO.N,/TX_UASART2_VCOM*%
X100463348Y-111300000D02*
X103100000Y-111300000D01*
X100463348Y-111300000D02*
X99431674Y-112331674D01*
X104600000Y-109800000D02*
X103100000Y-111300000D01*
X106000000Y-83740000D02*
X106000000Y-96000000D01*
X109240000Y-80500000D02*
X106000000Y-83740000D01*
%TO.N,/RX_UASART2_VCOM*%
X103400000Y-83800000D02*
X103400000Y-96300000D01*
X106700000Y-80500000D02*
X103400000Y-83800000D01*
X103400000Y-96300000D02*
X103700000Y-96600000D01*
%TO.N,Net-(U1-PB1)*%
X171900000Y-80350000D02*
X154270000Y-80350000D01*
X174456674Y-77793326D02*
X171900000Y-80350000D01*
%TO.N,Net-(U1-PA8)*%
X132450707Y-110150000D02*
X126100000Y-110150000D01*
X122050000Y-104835945D02*
X128061145Y-98824800D01*
X122050000Y-106100000D02*
X122050000Y-104835945D01*
X146697600Y-103152400D02*
X146900000Y-102950000D01*
X132966455Y-103152400D02*
X146697600Y-103152400D01*
X133075352Y-109525355D02*
X132450707Y-110150000D01*
X126100000Y-110150000D02*
X122050000Y-106100000D01*
X128061145Y-98824800D02*
X128638855Y-98824800D01*
X128638855Y-98824800D02*
X132966455Y-103152400D01*
%TO.N,SWDIO*%
X144020000Y-98320000D02*
X144100000Y-98400000D01*
%TO.N,SWCLK*%
X143000000Y-97685000D02*
X143000000Y-97437900D01*
%TO.N,Net-(U2-ADC3)*%
X137832600Y-111932600D02*
X166007400Y-111932600D01*
X166007400Y-111932600D02*
X167800000Y-110140000D01*
X132243368Y-106343368D02*
X137832600Y-111932600D01*
X132243368Y-106158532D02*
X132243368Y-106343368D01*
%TO.N,Net-(U2-ADC2)*%
X131066505Y-105351900D02*
X131118405Y-105300000D01*
X131118405Y-105300000D02*
X132448185Y-105300000D01*
X144600000Y-111297600D02*
X148297600Y-107600000D01*
X148297600Y-107600000D02*
X167800000Y-107600000D01*
X132448185Y-105300000D02*
X138445785Y-111297600D01*
X138445785Y-111297600D02*
X144600000Y-111297600D01*
%TO.N,Net-(U2-ADC1)*%
X129319766Y-104700000D02*
X129337087Y-104682679D01*
X144047100Y-110415500D02*
X147497600Y-106965000D01*
X129200000Y-104700000D02*
X129319766Y-104700000D01*
X129751815Y-105100000D02*
X129600000Y-105100000D01*
X138500000Y-112814700D02*
X137466515Y-112814700D01*
X167207400Y-104467400D02*
X167800000Y-105060000D01*
X137466515Y-112814700D02*
X129751815Y-105100000D01*
X129600000Y-105100000D02*
X129200000Y-104700000D01*
X152597600Y-104467400D02*
X167207400Y-104467400D01*
X141100000Y-110415500D02*
X144047100Y-110415500D01*
X150100000Y-106965000D02*
X152597600Y-104467400D01*
X147497600Y-106965000D02*
X150100000Y-106965000D01*
%TD*%
D16*
X73570000Y-75080000D02*
X179650000Y-75080000D01*
X179650000Y-128060000D01*
X73570000Y-128060000D01*
X73570000Y-75080000D01*
M02*
